<?xml version="1.0" encoding="UTF-8"?>
<svg width="25px" height="24px" viewBox="0 0 25 24" version="1.1" xmlns="http://www.w3.org/2000/svg" xmlns:xlink="http://www.w3.org/1999/xlink">
    <title>communications_off</title>
    <g id="Symbols" stroke="none" stroke-width="1" fill="none" fill-rule="evenodd">
        <g id="communications_off" transform="translate(-3.500000, -4.000000)" fill="#C8C8C8">
            <path d="M10.8893222,27.9444445 C10.4337666,27.9444445 10.0559889,27.5666667 10.0559889,27.1111112 C10.0559889,26.6555556 10.4337666,26.2777778 10.8893222,26.2777778 L14.0555555,26.2775555 L14.0555555,23.9435555 L9.88888886,23.9444445 C6.17777773,23.9444445 4.0555555,21.8222223 4.0555555,18.1111111 L4.0555555,12.1111111 C4.0555555,8.39999996 6.17777773,6.27777773 9.88888886,6.27777773 L12.3472557,6.27796403 C13.0811022,4.87634956 14.5048048,4.0555555 16.2777778,4.0555555 L23.5,4.0555555 C26.1111112,4.0555555 27.9444445,5.87777773 27.9444445,8.49999996 L27.9444445,12.8333555 C27.9444445,14.6104191 27.1286213,16.0366086 25.7230168,16.7689482 L25.7222223,18.1 C25.7222223,21.8222223 23.6,23.9444445 19.8888889,23.9444445 L15.7215555,23.9435555 L15.7215555,26.2775555 L18.8893333,26.2777778 C19.3448889,26.2777778 19.7226667,26.6555556 19.7226667,27.1111112 C19.7226667,27.5666667 19.3448889,27.9444445 18.8893333,27.9444445 L10.8893222,27.9444445 Z M11.8608199,7.94348485 L9.88888886,7.9444444 C7.08888884,7.9444444 5.72222217,9.31111108 5.72222217,12.1111111 L5.72222217,18.1111111 C5.72222217,20.9111111 7.08888884,22.2777778 9.88888886,22.2777778 L19.8888889,22.2777778 C22.6888889,22.2777778 24.0555556,20.9111111 24.0555556,18.1111111 L24.056441,17.2495958 C23.9478963,17.2607317 23.8385266,17.2685674 23.7283319,17.2731029 C23.7153622,17.272955 23.7019293,17.2735431 23.6884774,17.2740741 L23.5,17.2777778 L20.8666667,17.2777778 L17.8666667,19.2777778 C17.6,19.4555556 17.3,19.5334445 17,19.5334445 C16.8446782,19.5330245 16.69429,19.5105101 16.5490108,19.465306 C16.4457778,19.4333511 16.3488889,19.3933334 16.2555556,19.3444445 C15.7555556,19.0777778 15.4444444,18.5555555 15.4444444,17.9888889 L15.4444444,17.2111111 C14.5111111,17.0666667 13.6888889,16.6555556 13.0666667,16.0444444 C12.2777778,15.2555556 11.8333333,14.1111111 11.8333333,12.8333555 L11.8333333,8.49999996 C11.8333333,8.31093563 11.8424955,8.12530828 11.8608199,7.94348485 Z M23.5,5.71109995 L16.2777778,5.71109995 L16.2777778,5.72222217 C15,5.72222217 14.0555555,6.33333329 13.6777778,7.38888885 C13.5666667,7.72222218 13.5,8.09999996 13.5,8.49999996 L13.5,12.8333555 C13.5,13.6778 13.7555555,14.3777778 14.2444444,14.8666667 C14.7333333,15.3555556 15.4333333,15.6111111 16.2777778,15.6111111 C16.7333333,15.6111111 17.1111111,15.9888889 17.1111111,16.4444444 L17.1111111,17.7777778 L20.1444445,15.7444444 C20.2777778,15.6555556 20.4444445,15.6 20.6111111,15.6 L23.5,15.6 C23.9,15.6 24.2777778,15.5444444 24.6222223,15.4222222 C25.6777778,15.0444444 26.2777778,14.1 26.2777778,12.8222333 L26.2777778,8.48887774 C26.2777778,6.77776662 25.2111112,5.71109995 23.5,5.71109995 Z M19.8216667,9.88888886 C20.2772222,9.88888886 20.655,10.2666666 20.655,10.7222222 C20.655,11.1777778 20.2772222,11.5555555 19.8216667,11.5555555 C19.355,11.5555555 18.9883333,11.1777778 18.9883333,10.7222222 C18.9883333,10.2666666 19.3661111,9.88888886 19.8216667,9.88888886 Z M22.9444445,9.88888886 C23.4,9.88888886 23.7777778,10.2666666 23.7777778,10.7222222 C23.7777778,11.1777778 23.4,11.5555555 22.9444445,11.5555555 C22.4777778,11.5555555 22.1111111,11.1777778 22.1111111,10.7222222 C22.1111111,10.2666666 22.4888889,9.88888886 22.9444445,9.88888886 Z M16.6901111,9.88888886 C17.1456667,9.88888886 17.5234445,10.2666666 17.5234445,10.7222222 C17.5234445,11.1777778 17.1567778,11.5555555 16.6901111,11.5555555 C16.2234444,11.5555555 15.8567778,11.1777778 15.8567778,10.7222222 C15.8567778,10.2666666 16.2345556,9.88888886 16.6901111,9.88888886 Z" id="Combined-Shape"></path>
        </g>
    </g>
</svg>