<?xml version="1.0" encoding="UTF-8"?>
<svg width="27px" height="24px" viewBox="0 0 27 24" version="1.1" xmlns="http://www.w3.org/2000/svg" xmlns:xlink="http://www.w3.org/1999/xlink">
    <title>ecoles</title>
    <g id="Symbols" stroke="none" stroke-width="1" fill="none" fill-rule="evenodd">
        <g id="ecoles" transform="translate(-2.500000, -4.500000)" fill="#F02478">
            <path d="M15.2442222,5.17752217 C17.922,5.17752217 19.3886667,6.66643329 19.3886667,9.3664333 L19.3884444,26.2775222 L23.8114444,26.2775222 L23.8116772,22.8875157 C22.4153443,22.5118579 21.3884445,21.2375675 21.3884445,19.7221111 L21.3884445,17.1998889 C21.3884445,15.3887778 22.8551111,13.9221111 24.6662223,13.9221111 C26.4773334,13.9221111 27.9440001,15.3887778 27.9440001,17.1998889 L27.9440001,19.7221111 C27.9440001,21.2529056 26.8962082,22.5376278 25.4782571,22.8986451 L25.4774444,26.2775222 L28.2222223,26.2777778 C28.6777778,26.2777778 29.0555556,26.6555556 29.0555556,27.1111112 C29.0555556,27.5666667 28.6777778,27.9444445 28.2222223,27.9444445 L24.778161,27.9448405 C24.734815,27.9517431 24.6902716,27.9553334 24.6447778,27.9553334 C24.600624,27.9553334 24.5572008,27.9517845 24.5147814,27.9449599 L3.77777772,27.9444445 C3.32222216,27.9444445 2.94444438,27.5666667 2.94444438,27.1111112 C2.94444438,26.6555556 3.32222216,26.2777778 3.77777772,26.2777778 L4.15444438,26.2775222 L4.15537772,9.3664333 C4.15537772,6.66643329 5.6331555,5.17752217 8.32204441,5.17752217 L15.2442222,5.17752217 Z M15.2442222,6.84418884 L8.32204441,6.84418884 C6.57759995,6.84418884 5.82204439,7.59976662 5.82204439,9.3664333 L5.82144438,26.2775222 L10.9994444,26.2775222 L11,22.9444445 C11,22.4888889 11.3777778,22.1111111 11.8333333,22.1111111 C12.2888889,22.1111111 12.6666667,22.4888889 12.6666667,22.9444445 L12.6664444,26.2775222 L17.7214444,26.2775222 L17.722,9.3664333 C17.722,7.59976662 16.9775556,6.84418884 15.2442222,6.84418884 Z M24.6662223,15.5998889 C23.7773334,15.5998889 23.0551111,16.3221111 23.0551111,17.211 L23.0551111,19.7332222 C23.0551111,20.5832138 23.7155082,21.280806 24.5505342,21.340231 L24.6447778,21.3331111 L24.6447778,21.3331111 C24.6808718,21.3331111 24.7164776,21.3354826 24.7514459,21.3400764 L24.6662223,21.3443334 C25.5551111,21.3443334 26.2773334,20.6221111 26.2773334,19.7332222 L26.2773334,17.211 C26.2773334,16.3221111 25.5551111,15.5998889 24.6662223,15.5998889 Z M14.6108889,15.1666667 C15.0664444,15.1666667 15.4442222,15.5444444 15.4442222,16 C15.4442222,16.4555556 15.0664444,16.8333333 14.6108889,16.8333333 L9.11088885,16.8333333 C8.6553333,16.8333333 8.27755552,16.4555556 8.27755552,16 C8.27755552,15.5444444 8.6553333,15.1666667 9.11088885,15.1666667 L14.6108889,15.1666667 Z M14.6108889,11 C15.0664444,11 15.4442222,11.3777778 15.4442222,11.8333333 C15.4442222,12.2888889 15.0664444,12.6666667 14.6108889,12.6666667 L9.11088885,12.6666667 C8.6553333,12.6666667 8.27755552,12.2888889 8.27755552,11.8333333 C8.27755552,11.3777778 8.6553333,11 9.11088885,11 L14.6108889,11 Z" id="Combined-Shape"></path>
        </g>
    </g>
</svg>