<svg width="37" height="36" viewBox="0 0 37 36" xmlns="http://www.w3.org/2000/svg">
    <g transform="translate(.178)" fill="#FA9917" fill-rule="evenodd">
        <rect fill-opacity=".248" width="36" height="36" rx="8"/>
        <path d="m13.45 20.82 4.358-1.178-2.61-2.916a1.765 1.765 0 0 1 1.316-2.942h4.722c.324 0 .588.264.588.589v3.9l1.623 1.893a.588.588 0 1 1-.893.766l-1.765-2.059a.588.588 0 0 1-.142-.383v-3.529h-4.133a.589.589 0 0 0-.439.98l3.246 3.628a.588.588 0 0 1-.285.96l-4.528 1.224 3.335 2.942a1.176 1.176 0 0 0 1.531.022l.602-.502a.588.588 0 0 1 .754.904l-.602.502a2.353 2.353 0 0 1-3.064-.044L8.2 17.755a.588.588 0 0 1 .778-.882l4.474 3.947zm1.831-9.059-.129.113a.588.588 0 1 1-.775-.885l.138-.121-.197-.23a.588.588 0 1 1 .893-.766l.19.221.153-.134a.588.588 0 0 1 .775.886l-.162.142.953 1.112a.588.588 0 1 1-.893.766l-.946-1.104zm10.072 4.67a2.647 2.647 0 1 1 0-5.294 2.647 2.647 0 0 1 0 5.294zm0-1.176a1.47 1.47 0 1 0 0-2.941 1.47 1.47 0 0 0 0 2.941z" fill-rule="nonzero"/>
    </g>
</svg>
