<svg width="24" height="24" viewBox="0 0 24 24" xmlns="http://www.w3.org/2000/svg">
    <path d="M14.5 3.042c4.525 0 6.458 1.933 6.458 6.458v5c0 4.525-1.933 6.458-6.458 6.458h-5c-4.525 0-6.458-1.933-6.458-6.458v-5c0-4.525 1.933-6.458 6.458-6.458h5zm0 1.25h-5c-3.842 0-5.208 1.366-5.208 5.208v5c0 3.842 1.366 5.208 5.208 5.208h5c3.842 0 5.208-1.366 5.208-5.208v-5c0-3.842-1.366-5.208-5.208-5.208zm.5 8.166c.758 0 1.375.617 1.375 1.375A4.38 4.38 0 0 1 12 18.208a4.38 4.38 0 0 1-4.375-4.375c0-.758.617-1.375 1.375-1.375h6zm0 1.25H9a.128.128 0 0 0-.125.125 3.126 3.126 0 0 0 6.25 0 .128.128 0 0 0-.125-.125zM14.917 7c1.033 0 1.875.842 1.875 1.875a1.878 1.878 0 0 1-1.875 1.875 1.878 1.878 0 0 1-1.875-1.875c0-1.033.841-1.875 1.875-1.875zM9.083 7c1.034 0 1.875.842 1.875 1.875a1.878 1.878 0 0 1-1.875 1.875 1.878 1.878 0 0 1-1.875-1.875C7.208 7.842 8.05 7 9.083 7zm5.834 1.25a.63.63 0 0 0-.625.625.63.63 0 0 0 .625.625.63.63 0 0 0 .625-.625.63.63 0 0 0-.625-.625zm-5.834 0a.63.63 0 0 0-.625.625.63.63 0 0 0 .625.625.63.63 0 0 0 .625-.625.63.63 0 0 0-.625-.625z" fill="#C8C8C8" fill-rule="evenodd"/>
</svg>
