<svg width="21" height="20" viewBox="0 0 21 20" xmlns="http://www.w3.org/2000/svg">
    <path d="M17.53 5.181c.254.254.27.683.032.97l-7.136 8.104a.69.69 0 0 1-.477.207.652.652 0 0 1-.46-.207l-3.48-3.75c-.255-.27-.24-.7 0-.97.253-.27.65-.254.905 0l3.02 3.258 6.69-7.58a.62.62 0 0 1 .906-.032zM3.148 9.33a.747.747 0 0 1 .794.206l3.385 3.687c.239.255.239.652-.016.874a.637.637 0 0 1-.953 0L2.893 10.33a.617.617 0 0 1 .255-1.001zm9.98-4.053c.27-.317.747-.286.985.08.175.27.127.636-.08.874l-3.972 4.513a.65.65 0 0 1-.954.032.644.644 0 0 1-.032-.89z" fill="#FFF" fill-rule="evenodd"/>
</svg>
