<?xml version="1.0" encoding="UTF-8"?>
<svg width="24px" height="25px" viewBox="0 0 24 25" version="1.1" xmlns="http://www.w3.org/2000/svg" xmlns:xlink="http://www.w3.org/1999/xlink">
    <title>F928F77A-835B-4F78-807F-EC9759E214E9</title>
    <g id="Web" stroke="none" stroke-width="1" fill="none" fill-rule="evenodd">
        <g id="01.2.3-Home-(Timeline-Modifier)" transform="translate(-760.000000, -436.000000)" fill="#C8C8C8">
            <g id="Timeline/Evento/Collectif-Copy" transform="translate(752.000000, 421.000000)">
                <g id="icons/outline/forbidden" transform="translate(8.000000, 15.026973)">
                    <path d="M14.4166667,3.04166662 C15.1583333,3.04166662 16.1083334,3.43334162 16.625,3.95834163 L20.0416666,7.37500831 C20.5666667,7.90000831 20.9583334,8.85000832 20.9583334,9.58334165 L20.9583334,14.4166667 C20.9583334,15.1583333 20.5666667,16.1083334 20.0416666,16.625 L16.625,20.0416666 C16.1,20.5666667 15.1583333,20.9583334 14.4166667,20.9583334 L9.58334165,20.9583334 C8.84167498,20.9583334 7.89166665,20.5666667 7.37499998,20.0416666 L3.95834163,16.625 C3.43334162,16.1 3.04166662,15.15 3.04166662,14.4166667 L3.04166662,9.58334165 C3.04166662,8.84167498 3.43334162,7.89167498 3.95834163,7.37500831 L7.37499998,3.95834163 C7.89999998,3.43334162 8.85000832,3.04166662 9.58334165,3.04166662 L14.4166667,3.04166662 Z M17.8986666,6.99866662 L6.99866662,17.8986666 L8.25832498,19.1583334 C8.54999165,19.4416667 9.17500832,19.7083334 9.58334165,19.7083334 L14.4166667,19.7083334 C14.825,19.7083334 15.4583334,19.45 15.7416667,19.1583334 L19.1583334,15.7416667 C19.4416667,15.45 19.7083334,14.825 19.7083334,14.4166667 L19.7083334,9.58334165 C19.7083334,9.17500832 19.45,8.54167498 19.1583334,8.25834165 L17.8986666,6.99866662 Z M14.4166667,4.29166663 L9.58334165,4.29166663 C9.17500832,4.29166663 8.54165832,4.54999996 8.25832498,4.84166663 L4.84166663,8.25834165 C4.5583333,8.55000832 4.29166663,9.17500832 4.29166663,9.58334165 L4.29166663,14.4166667 C4.29166663,14.825 4.54999996,15.4583334 4.84166663,15.7416667 L6.11566662,17.0156666 L17.0156666,6.11566662 L15.7416667,4.84166663 C15.45,4.5583333 14.825,4.29166663 14.4166667,4.29166663 Z" id="Combined-Shape"></path>
                </g>
            </g>
        </g>
    </g>
</svg>