<svg width="28" height="28" viewBox="0 0 28 28" xmlns="http://www.w3.org/2000/svg">
    <path d="M16.43 3.549c2.353 0 3.646 1.293 3.646 3.645v2.24l.146.084c1.906 1.283 2.032 1.517 2.032 3.53v4.822c0 2.012-.126 2.245-1.993 3.5l-4.647 2.683c-.457.272-1.04.398-1.614.398-.584 0-1.157-.136-1.624-.398l-4.598-2.654c-1.84-1.24-2.022-1.5-2.032-3.327v-5.025c0-2.012.126-2.246 1.993-3.5l.185-.107V7.194c0-2.352 1.293-3.645 3.645-3.645h4.862zM14 7.924c-.33 0-.661.068-.895.204l-4.598 2.654c-1.249.848-1.3.883-1.303 2.1v4.988c0 1.38 0 1.38 1.351 2.294l4.56 2.625c.467.272 1.313.272 1.78 0l4.598-2.654c1.303-.885 1.303-.885 1.303-2.265v-4.823c0-1.38 0-1.38-1.352-2.294l-4.56-2.625c-.223-.136-.554-.204-.884-.204zm1.235 4.705.554.866.992.252c.534.136.933.486 1.079.943.146.457.03.973-.32 1.4l-.652.788.058 1.02c.03.555-.175 1.031-.564 1.323a1.364 1.364 0 0 1-.797.253c-.204 0-.418-.04-.632-.127l-.953-.37-.953.38c-.515.204-1.04.156-1.429-.126-.389-.282-.593-.768-.564-1.323l.059-1.02-.652-.788c-.35-.437-.466-.943-.31-1.41.145-.457.544-.807 1.078-.943l.992-.252.554-.866c.593-.933 1.867-.933 2.46 0zm-1.225.807-.554.856a1.572 1.572 0 0 1-.866.632l-1 .243.65.787c.224.263.35.68.331 1.021l-.058 1.02.952-.378c.321-.127.75-.127 1.07 0l.953.379-.059-1.02c-.02-.341.107-.75.33-1.022l.652-.787-.991-.253c-.33-.088-.68-.34-.866-.622l-.544-.856zm2.42-8.43h-4.86c-1.537 0-2.188.652-2.188 2.188v1.404l3.004-1.734c.924-.535 2.314-.535 3.237 0l2.995 1.728V7.194c0-1.536-.651-2.187-2.187-2.187z" fill="#FBAAAB" fill-rule="evenodd"/>
</svg>
