<svg width="24" height="24" viewBox="0 0 24 24" xmlns="http://www.w3.org/2000/svg">
    <path d="M9.2 19.183a7.8 7.8 0 0 0 2.25.509.63.63 0 0 1 .583.633l-.008.033a.62.62 0 0 1-.617.584c-.016 0-.033-.009-.041-.009a8.77 8.77 0 0 1-2.617-.583.622.622 0 0 1-.358-.808.642.642 0 0 1 .808-.359zM12 3.042c4.942 0 8.958 4.016 8.958 8.958a8.962 8.962 0 0 1-6.675 8.667c-.05.008-.108.016-.158.016a.63.63 0 0 1-.608-.466.624.624 0 0 1 .45-.767 7.714 7.714 0 0 0 5.741-7.458c0-4.25-3.458-7.709-7.708-7.709-3.608 0-5.975 2.109-7.083 3.384h2.45a.63.63 0 0 1 0 1.258H3.675A.735.735 0 0 1 3.5 8.9a.75.75 0 0 1-.2-.1.55.55 0 0 1-.175-.192.673.673 0 0 1-.083-.258V4.5a.63.63 0 0 1 .625-.625.63.63 0 0 1 .625.625v1.992C5.65 5.033 8.208 3.042 12 3.042zm-6.367 13.3v.008c.009.008.017.025.025.033a7.675 7.675 0 0 0 1.55 1.65.63.63 0 0 1 .234.484.642.642 0 0 1-.134.4.632.632 0 0 1-.491.233.673.673 0 0 1-.392-.133 9.197 9.197 0 0 1-1.817-1.959.608.608 0 0 1 .159-.866.64.64 0 0 1 .866.15zm-1.966-4.967a.63.63 0 0 1 .625.625c0 .783.116 1.55.341 2.275a.757.757 0 0 1 .025.192.623.623 0 0 1-.625.616.61.61 0 0 1-.591-.433 8.921 8.921 0 0 1-.4-2.65v-.008a.628.628 0 0 1 .625-.617z" fill="#FFF" fill-rule="evenodd"/>
</svg>
