<?xml version="1.0" encoding="UTF-8"?>
<svg width="24px" height="24px" viewBox="0 0 24 24" version="1.1" xmlns="http://www.w3.org/2000/svg" xmlns:xlink="http://www.w3.org/1999/xlink">
    <title>DBC06B53-9E08-4C50-AD72-5611362FB1D4</title>
    <g id="Web" stroke="none" stroke-width="1" fill="none" fill-rule="evenodd">
        <g id="04.3.1-Nouveau-cours" transform="translate(-745.000000, -393.000000)" fill="#C8C8C8" fill-rule="nonzero">
            <g id="Modulo/Cours/Nouveau/Info" transform="translate(404.000000, 136.000000)">
                <g id="Group" transform="translate(0.000000, 145.000000)">
                    <g id="Sport/On-Copy-7" transform="translate(288.000000, 80.000000)">
                        <g id="icons/outline/disciplinas/3" transform="translate(53.000000, 32.000000)">
                            <path d="M10.0929929,17.873368 L16.6362547,8.13578539 C14.9747198,7.15822717 12.8745327,7.70169851 11.8995021,9.34052672 C11.7149375,9.65087848 11.3288313,9.77205444 11.0022064,9.62240207 L8.81190525,8.61820538 L8.76280003,8.72938126 C8.60451614,9.08880674 8.18732362,9.25055693 7.83113489,9.09092774 C7.4749231,8.93113181 7.31451708,8.51050376 7.47282019,8.15109766 L7.52658104,8.02901824 L7.11991463,7.84256445 C6.76505224,7.67989141 6.60814082,7.25775889 6.76940801,6.89986502 C6.93069441,6.54195177 7.34922866,6.38369133 7.70407182,6.54634498 L8.09993532,6.72780066 L8.17862746,6.54937331 C8.33706128,6.18994783 8.75410388,6.02819764 9.11044638,6.18782683 C9.46665817,6.34762276 9.62706419,6.76825081 9.46876108,7.12765691 L9.38526337,7.31698781 L11.0505273,8.08050765 C12.5337948,6.19111496 15.2040761,5.64481304 17.3227551,6.89135389 L18.0027622,7.29135749 C18.3567212,7.49962225 18.4610981,7.96720691 18.2296735,8.30831117 L14.3972135,13.9578384 L17.294087,13.9578384 C17.8510716,13.9578384 18.1886916,14.5780844 17.8896699,15.0520321 L16.1094952,17.8735386 L20.7662831,17.8735386 C21.1289536,17.8735386 21.450942,17.6393721 21.5656606,17.2923779 C21.6889522,16.9193191 22.0885833,16.7178865 22.4584583,16.842083 C22.8283371,16.9664347 23.0282064,17.3696178 22.9049148,17.7427115 C22.5981081,18.6711805 21.7365466,19.2973591 20.7662831,19.2973591 L14.8342896,19.2973591 C14.8291838,19.2975105 13.5007252,19.2975105 10.848359,19.2973591 L9.43671371,21.4331673 L14.7662812,21.4331673 C15.1289517,21.4331673 15.4509401,21.199152 15.5656586,20.8521617 C15.6889503,20.4791029 16.0886967,20.2775152 16.4584563,20.4018668 C16.8283352,20.5262185 17.0282045,20.9294016 16.9049129,21.3024953 C16.5981062,22.2308092 15.7365446,22.8571429 14.7662812,22.8571429 L8.12729246,22.8571429 L0.705957207,22.8571429 C0.316091061,22.8571429 0,22.5384583 0,22.1452714 C0,21.7520845 0.316117972,21.4332448 0.705957207,21.4332448 L7.73977143,21.4332448 L9.15141673,19.2974366 L6.7058438,19.2974366 C6.31597765,19.2974366 5.99988659,18.9787521 5.99988659,18.5855651 C5.99988659,18.1923472 6.31600456,17.8736937 6.7058438,17.8736937 L10.0929929,17.873368 Z M11.7898198,17.873368 L14.4361886,17.873368 L16.0083783,15.3816046 L13.4367842,15.3816046 L11.7898198,17.873368 Z M20.8235193,7.55028187 C19.0691794,7.55028187 17.6471925,6.11591459 17.6471925,4.34649196 C17.6471925,2.57722442 19.0691794,1.14285714 20.8235193,1.14285714 C22.5778593,1.14285714 24,2.57722442 24,4.34649196 C24,6.11591459 22.5778593,7.55028187 20.8235193,7.55028187 Z M20.8235193,6.12634509 C21.7981655,6.12634509 22.5882009,5.32947868 22.5882009,4.34649196 C22.5882009,3.36362156 21.798127,2.56679393 20.8235193,2.56679393 C19.8488732,2.56679393 19.0588378,3.36366033 19.0588378,4.34649196 C19.0588378,5.32951746 19.8489117,6.12634509 20.8235193,6.12634509 Z" id="Shape"></path>
                        </g>
                    </g>
                </g>
            </g>
        </g>
    </g>
</svg>