<svg width="25" height="25" viewBox="0 0 25 25" xmlns="http://www.w3.org/2000/svg">
    <path d="M15.542 3.542c3.683 0 5.625 1.941 5.625 5.625v4.166c0 3.684-1.942 5.625-5.625 5.625h-.417a.218.218 0 0 0-.167.084l-1.25 1.666c-.383.509-.925.8-1.5.8s-1.116-.291-1.5-.8l-1.25-1.666a.394.394 0 0 0-.166-.084h-.417c-3.475 0-5.625-.941-5.625-5.625V9.167c0-3.684 1.942-5.625 5.625-5.625h6.667zm0 1.25H8.875C5.892 4.792 4.5 6.183 4.5 9.167v4.166c0 3.767 1.292 4.375 4.375 4.375h.417c.425 0 .908.242 1.166.584l1.25 1.666c.292.384.709.384 1 0l1.25-1.666a1.46 1.46 0 0 1 1.167-.584h.417c2.983 0 4.375-1.391 4.375-4.375V9.167c0-2.984-1.392-4.375-4.375-4.375zm-3.334 6.041c.459 0 .834.375.834.834a.83.83 0 0 1-.834.833.83.83 0 0 1-.833-.833c0-.459.375-.834.833-.834zm3.334 0c.458 0 .833.375.833.834a.83.83 0 0 1-.833.833.83.83 0 0 1-.834-.833c0-.459.375-.834.834-.834zm-6.667 0c.458 0 .833.375.833.834a.83.83 0 0 1-.833.833.83.83 0 0 1-.833-.833c0-.459.375-.834.833-.834z" fill="#FFF" fill-rule="evenodd"/>
</svg>
