<svg width="28" height="28" viewBox="0 0 28 28" xmlns="http://www.w3.org/2000/svg">
    <path d="M15.487 5.756c2.275.7 3.879 2.576 4.462 5.182 1.993.447 3.578 1.954 4.22 4.034.69 2.266.068 4.59-1.634 6.077a5.958 5.958 0 0 1-3.986 1.536H7.73c-2.86-.204-4.142-2.402-4.142-4.365 0-1.75 1.02-3.695 3.247-4.23-.622-2.43-.097-4.715 1.487-6.368 1.799-1.886 4.686-2.634 7.166-1.866zM9.37 8.633c-1.293 1.352-1.662 3.218-1.06 5.27a4.41 4.41 0 0 1 1.41.437.73.73 0 1 1-.661 1.303 2.8 2.8 0 0 0-1.273-.311c-.007-.013-.013-.017-.023-.019h-.036c-1.847.136-2.693 1.555-2.693 2.907 0 1.35.846 2.77 2.732 2.906h10.734c1.127-.019 2.206-.408 3.043-1.166 1.516-1.332 1.623-3.228 1.215-4.56-.402-1.322-1.513-2.814-3.442-3.099l.06-.002c-.448.01-.905.116-1.313.32a.665.665 0 0 1-.32.088.713.713 0 0 1-.652-.408.733.733 0 0 1 .33-.982 4.553 4.553 0 0 1 1.018-.365c-.513-1.937-1.7-3.276-3.39-3.796-1.974-.603-4.25-.01-5.679 1.477z" fill="#C8C8C8" fill-rule="evenodd"/>
</svg>
