<?xml version="1.0" encoding="UTF-8"?>
<svg width="21px" height="20px" viewBox="0 0 21 20" version="1.1" xmlns="http://www.w3.org/2000/svg" xmlns:xlink="http://www.w3.org/1999/xlink">
    <title>0B142C91-8D8D-441C-9DD2-5035515C07EE</title>
    <g id="Web" stroke="none" stroke-width="1" fill="none" fill-rule="evenodd">
        <g id="07.1.3-Clients-(Blocages)" transform="translate(-1684.000000, -340.000000)" fill="#FFFFFF">
            <g id="reservations" transform="translate(350.000000, 262.000000)">
                <g id="Table/Blocage/Blocage/Fila" transform="translate(0.000000, 56.000000)">
                    <g id="Group" transform="translate(1328.230769, 16.000000)">
                        <g id="icons/outline/check" transform="translate(6.000000, 6.000000)">
                            <path d="M17.2989285,5.18111883 C17.5532193,5.43540966 17.5690711,5.86440004 17.3307428,6.15050524 L10.1954232,14.2552113 C10.0681657,14.3823582 9.89334125,14.4618671 9.71864738,14.4618671 C9.54366121,14.4618671 9.38469432,14.3823865 9.25767519,14.2552425 L5.77741905,10.5048295 C5.52312822,10.2346869 5.53909074,9.80557161 5.77741905,9.53544312 C6.03170988,9.26530044 6.42900223,9.28115229 6.6832959,9.53544312 L9.7026962,12.7932171 L16.3930516,5.21293321 C16.6313799,4.94279053 17.0446348,4.92694151 17.2989285,5.18111883 Z M2.91687779,9.32885257 C3.20286949,9.23350876 3.50483222,9.31300072 3.71145682,9.53547717 L3.71145682,9.53547717 L7.09646564,13.2224033 C7.33490462,13.476697 7.33490462,13.8739893 7.08050311,14.0963551 C6.82620945,14.3823468 6.38124235,14.3823468 6.12695153,14.0963551 L6.12695153,14.0963551 L2.66258696,10.3300505 C2.37659243,10.0121338 2.47191354,9.50366563 2.91687779,9.32885257 Z M12.8968415,5.2764825 C13.1669983,4.95867359 13.6437628,4.99048513 13.8820911,5.35596311 C14.0569013,5.62611998 14.0092351,5.99170011 13.8026105,6.23002842 L13.8026105,6.23002842 L9.82974087,10.7432373 C9.57544721,11.0292318 9.14644548,11.0451944 8.8763028,10.774941 C8.62201197,10.536624 8.62201197,10.1393317 8.84448842,9.88504086 L8.84448842,9.88504086 Z" id="Combined-Shape"></path>
                        </g>
                    </g>
                </g>
            </g>
        </g>
    </g>
</svg>