<svg width="25" height="24" viewBox="0 0 25 24" xmlns="http://www.w3.org/2000/svg">
    <g fill="none" fill-rule="evenodd">
        <path d="M14.783 20.958h-5c-4.525 0-6.459-1.933-6.459-6.458v-5c0-4.525 1.934-6.458 6.459-6.458h5c4.525 0 6.458 1.933 6.458 6.458v5c0 4.525-1.933 6.458-6.458 6.458z" fill-opacity=".24" fill="#C8C8C8"/>
        <path d="M15.616 12.625H8.949A.63.63 0 0 1 8.324 12a.63.63 0 0 1 .625-.625h6.667a.63.63 0 0 1 .625.625.63.63 0 0 1-.625.625z" fill="#FFF"/>
        <path d="M12.283 15.958a.63.63 0 0 1-.625-.625V8.667a.63.63 0 0 1 .625-.625.63.63 0 0 1 .625.625v6.666a.63.63 0 0 1-.625.625z" fill="#FFF"/>
    </g>
</svg>
