<?xml version="1.0" encoding="UTF-8"?>
<svg width="32px" height="32px" viewBox="0 0 32 32" version="1.1" xmlns="http://www.w3.org/2000/svg" xmlns:xlink="http://www.w3.org/1999/xlink">
    <title>8005F7AA-4E99-4310-9A82-F970C321F681</title>
    <g id="Web" stroke="none" stroke-width="1" fill="none" fill-rule="evenodd">
        <g id="01.1.1-Home-(Tableau-Bord)" transform="translate(-40.000000, -1012.000000)" fill="#C8C8C8">
            <g id="Sidemenu/option/default" transform="translate(0.000000, 1000.000000)">
                <g id="icons/outline/logout" transform="translate(40.000000, 12.000000)">
                    <path d="M19.6005556,4.58886661 C25.0561112,4.58886661 27.3894445,6.92219995 27.3894445,12.3777555 L27.3894445,19.6222222 C27.3894445,25.0777778 25.0561112,27.4111112 19.6005556,27.4111112 L19.4561111,27.4111112 C14.5227778,27.4111112 12.145,25.4666667 11.7338889,21.1111111 C11.6894444,20.6555556 12.0227778,20.2444445 12.4894444,20.2 C12.9338889,20.1555556 13.3561111,20.5 13.4005555,20.9555556 C13.7227778,24.4444445 15.3672222,25.7444445 19.4672222,25.7444445 L19.6116667,25.7444445 C24.1338889,25.7444445 25.7338889,24.1444445 25.7338889,19.6222222 L25.7338889,12.3777555 C25.7338889,7.85553329 24.1338889,6.25553328 19.6116667,6.25553328 L19.4672222,6.25553328 C15.345,6.25553328 13.7005555,7.57775551 13.4005555,11.1333111 C13.345,11.5888666 12.9561111,11.9333111 12.4894444,11.8888666 C12.0227778,11.8555333 11.6894444,11.4444222 11.7227778,10.9888666 C12.1005555,6.5666444 14.4894444,4.58886661 19.4561111,4.58886661 L19.6005556,4.58886661 Z M9.75494441,11.6889889 C10.0771666,12.0112111 10.0771666,12.5445444 9.75494441,12.8667667 L7.45527772,15.1658666 L19.3323333,15.1666667 C19.7878889,15.1666667 20.1656667,15.5444444 20.1656667,16 C20.1656667,16.4555556 19.7878889,16.8333333 19.3323333,16.8333333 L7.45427772,16.8328666 L9.75494441,19.1334445 C10.0771666,19.4556667 10.0771666,19.989 9.75494441,20.3112222 C9.59938886,20.4778889 9.37716663,20.5556667 9.16605552,20.5556667 C8.95494441,20.5556667 8.7438333,20.4778889 8.57716663,20.3112222 L4.85494439,16.589 C4.53272216,16.2667778 4.53272216,15.7334444 4.85494439,15.4112222 L8.57716663,11.6889889 C8.89938885,11.3667666 9.43272219,11.3667666 9.75494441,11.6889889 Z" id="Combined-Shape"></path>
                </g>
            </g>
        </g>
    </g>
</svg>