<svg width="24" height="24" viewBox="0 0 24 24" xmlns="http://www.w3.org/2000/svg">
    <path d="M8.85 9.367a.626.626 0 0 1-.566.683c-2.617.242-3.592 1.475-3.592 4.55v.108c0 3.392 1.2 4.592 4.592 4.592h5.433c3.392 0 4.592-1.2 4.592-4.592V14.6c0-3.092-.992-4.325-3.659-4.55a.624.624 0 0 1 .109-1.242c3.316.284 4.8 2.075 4.8 5.8v.109c0 4.075-1.75 5.825-5.842 5.825H9.284c-4.092 0-5.842-1.75-5.842-5.842v-.108c0-3.7 1.458-5.484 4.725-5.792a.643.643 0 0 1 .683.567zM12 3.042a.63.63 0 0 1 .625.625v10.158L14.35 12.1a.629.629 0 0 1 .883 0 .629.629 0 0 1 0 .883l-2.792 2.792a.618.618 0 0 1-.441.183.618.618 0 0 1-.442-.183l-2.791-2.792a.629.629 0 0 1 0-.883.629.629 0 0 1 .883 0l1.724 1.725.001-10.158A.63.63 0 0 1 12 3.042z" fill="#FFF" fill-rule="evenodd"/>
</svg>
