<svg width="24" height="24" viewBox="0 0 24 24" xmlns="http://www.w3.org/2000/svg">
    <path d="M11.167 3.042a.63.63 0 0 1 .625.625.63.63 0 0 1-.625.625H9.5c-3.842 0-5.208 1.366-5.208 5.208v5c0 3.842 1.366 5.208 5.208 5.208h5c3.842 0 5.208-1.366 5.208-5.208v-1.667a.63.63 0 0 1 .625-.625.63.63 0 0 1 .625.625V14.5c0 4.525-1.933 6.458-6.458 6.458h-5c-4.525 0-6.458-1.933-6.458-6.458v-5c0-4.525 1.933-6.458 6.458-6.458h1.667zm2.19 12.591c-.34.342-.966.659-1.45.725l-2.508.359c-.108.025-.216.025-.316.025-.509 0-.975-.184-1.317-.517-.408-.408-.583-1-.492-1.625l.359-2.508c.066-.484.383-1.109.725-1.45l5.573-5.575a.636.636 0 0 1 .115-.116l.878-.876c1.659-1.658 3.342-1.658 5 0 .909.908 1.317 1.833 1.234 2.758-.075.75-.475 1.484-1.234 2.234l-.91.91a.602.602 0 0 1-.063.064l-5.593 5.592zm.825-9.05-4.94 4.942a1.696 1.696 0 0 0-.376.742l-.358 2.508c-.034.242.016.442.141.567.125.125.325.175.567.141l2.508-.358c.217-.033.592-.217.742-.375l4.941-4.941a6.638 6.638 0 0 1-3.225-3.225zm1.626-1.625-.67.67a5.362 5.362 0 0 0 3.23 3.222l.665-.667c.541-.541.825-1.025.866-1.475.05-.541-.233-1.116-.866-1.758-1.334-1.333-2.25-.958-3.225.008z" fill="#C8C8C8" fill-rule="evenodd"/>
</svg>
