<svg width="24" height="24" viewBox="0 0 24 24" xmlns="http://www.w3.org/2000/svg">
    <path d="m10.2 4.967 7.133 3.566c1.775.884 2.75 2.117 2.75 3.467s-.975 2.583-2.741 3.467l-7.134 3.566c-1.616.809-2.816 1.092-3.7 1.092-.933 0-1.525-.317-1.9-.692-.733-.733-1.25-2.291.4-5.6l.725-1.441c.092-.192.092-.592 0-.784l-.725-1.441c-1.658-3.309-1.133-4.875-.4-5.6.725-.734 2.292-1.259 5.592.4zm-3.692.158c-.45 0-.8.108-1.016.325-.609.6-.367 2.158.633 4.15l.725 1.45c.05.1.09.209.12.324l4.063.001a.63.63 0 0 1 .625.625.63.63 0 0 1-.625.625H6.97a1.791 1.791 0 0 1-.12.325l-.725 1.442c-1 2-1.242 3.55-.633 4.15.6.608 2.158.366 4.158-.634l7.133-3.566c1.309-.65 2.05-1.509 2.05-2.35 0-.842-.75-1.7-2.058-2.35L9.642 6.083c-1.267-.633-2.359-.958-3.134-.958z" fill="#FF3085" fill-rule="evenodd"/>
</svg>
