<svg width="24" height="24" viewBox="0 0 24 24" xmlns="http://www.w3.org/2000/svg">
    <path d="M14.636 6.664c-1.314-.893-3.013-1.36-5.117-1.391a.717.717 0 0 1-.695-.738.716.716 0 0 1 .716-.717c3.094.048 5.51.964 7.203 2.767 1.68 1.79 2.675 4.607 3.02 8.439.035.4-.25.754-.639.791a.712.712 0 0 1-.768-.657c-.297-3.318-1.1-5.739-2.376-7.276l-5.926 1.162 3.221 4.526a.742.742 0 0 1-.159 1.022l-4.263 3.137 2.673 2.754c.265.273.624.426.998.426h1.594c.39 0 .706.326.706.727a.717.717 0 0 1-.706.728h-1.594a2.782 2.782 0 0 1-1.996-.852L2.33 13.065.827 11.517A2.955 2.955 0 0 1 0 9.46V7.818c0-.401.316-.727.706-.727.39 0 .706.326.706.727V9.46c0 .386.148.756.413 1.028l1.329 1.37 4.371.6.598-4a.753.753 0 0 1 .068-.235.71.71 0 0 1 .5-.392l5.945-1.167zm-5.82 6.72a.71.71 0 0 1-.792.61l-3.227-.444 3.044 3.136 3.873-2.85-2.452-3.445-.447 2.992zm12.008-5.202c-1.755 0-3.177-1.465-3.177-3.273 0-1.807 1.422-3.273 3.177-3.273C22.578 1.636 24 3.102 24 4.91c0 1.808-1.422 3.273-3.176 3.273zm0-1.455c.974 0 1.764-.814 1.764-1.818s-.79-1.818-1.764-1.818c-.975 0-1.765.814-1.765 1.818s.79 1.818 1.765 1.818z" fill="#83888c" fill-rule="nonzero"/>
</svg>
