<svg width="32" height="32" viewBox="0 0 32 32" xmlns="http://www.w3.org/2000/svg">
    <path d="M17.277 4.056c1.434 0 3.067 1.01 3.723 2.3l.8 1.622c.166.31.5.522.866.522a5.02 5.02 0 0 1 3.656 1.589 4.95 4.95 0 0 1 1.344 3.733L27.09 23c-.2 3.144-2.123 4.944-5.267 4.944H10.177c-3.11 0-5.088-1.855-5.266-4.955l-.578-9.167a4.934 4.934 0 0 1 1.344-3.733A5.02 5.02 0 0 1 9.333 8.5c.356 0 .7-.211.867-.544l.8-1.59c.655-1.3 2.3-2.31 3.733-2.31h2.544zm-2.544 1.666c-.822 0-1.867.645-2.244 1.39l-.8 1.6a2.652 2.652 0 0 1-2.356 1.455c-.933 0-1.8.377-2.444 1.055a3.28 3.28 0 0 0-.89 2.49l.578 9.177c.134 2.244 1.345 3.389 3.6 3.389h11.645c2.244 0 3.455-1.145 3.6-3.39L26 13.712a3.322 3.322 0 0 0-.89-2.489 3.346 3.346 0 0 0-2.444-1.055 2.673 2.673 0 0 1-2.355-1.434L19.5 7.111c-.367-.733-1.411-1.378-2.234-1.378h-2.533v-.01zM16 14.612a4.443 4.443 0 0 1 4.444 4.444A4.443 4.443 0 0 1 16 23.5a4.443 4.443 0 0 1-4.444-4.444A4.443 4.443 0 0 1 16 14.61zm0 1.666a2.779 2.779 0 0 0 0 5.555 2.779 2.779 0 0 0 0-5.555zm1.667-5.556a.84.84 0 0 1 .833.834.84.84 0 0 1-.833.833h-3.334a.84.84 0 0 1-.833-.833.84.84 0 0 1 .833-.834h3.334z" fill="#FFF" fill-rule="evenodd"/>
</svg>
