<svg width="20" height="20" viewBox="0 0 20 20" xmlns="http://www.w3.org/2000/svg">
    <path d="M15.396 9.48H12.59c-1.396 0-2.07-.619-2.07-1.897V4.431c0-1.278.681-1.896 2.07-1.896h2.806c1.396 0 2.07.618 2.07 1.896v3.145c0 1.285-.681 1.903-2.07 1.903zM12.59 3.575c-.93 0-1.027.264-1.027.855v3.145c0 .598.097.855 1.027.855h2.806c.93 0 1.028-.264 1.028-.855V4.431c0-.598-.098-.855-1.028-.855H12.59zm2.806 13.89H12.59c-1.396 0-2.07-.681-2.07-2.07V12.59c0-1.396.681-2.07 2.07-2.07h2.806c1.396 0 2.07.681 2.07 2.07v2.806c0 1.389-.681 2.07-2.07 2.07zm-2.806-5.904c-.82 0-1.027.209-1.027 1.028v2.806c0 .82.208 1.028 1.027 1.028h2.806c.82 0 1.028-.209 1.028-1.028V12.59c0-.82-.209-1.027-1.028-1.027H12.59zM7.41 9.48H4.604c-1.396 0-2.07-.618-2.07-1.896V4.431c0-1.278.681-1.896 2.07-1.896H7.41c1.396 0 2.07.618 2.07 1.896v3.145c0 1.285-.681 1.903-2.07 1.903zM4.604 3.576c-.93 0-1.028.264-1.028.855v3.145c0 .598.098.855 1.028.855H7.41c.93 0 1.027-.264 1.027-.855V4.431c0-.598-.097-.855-1.027-.855H4.604zm2.806 13.89H4.604c-1.396 0-2.07-.681-2.07-2.07V12.59c0-1.396.681-2.07 2.07-2.07H7.41c1.396 0 2.07.681 2.07 2.07v2.806c0 1.389-.681 2.07-2.07 2.07zm-2.806-5.904c-.82 0-1.028.209-1.028 1.028v2.806c0 .82.209 1.028 1.028 1.028H7.41c.82 0 1.027-.209 1.027-1.028V12.59c0-.82-.208-1.027-1.027-1.027H4.604z" fill="#C8C8C8" fill-rule="evenodd"/>
</svg>
