<svg width="24" height="24" viewBox="0 0 24 24" xmlns="http://www.w3.org/2000/svg">
    <path d="M12 3.042c4.942 0 8.958 4.016 8.958 8.958S16.942 20.958 12 20.958 3.042 16.942 3.042 12 7.058 3.042 12 3.042zm0 1.25C7.75 4.292 4.292 7.75 4.292 12S7.75 19.708 12 19.708 19.708 16.25 19.708 12 16.25 4.292 12 4.292zm-.3 3.341a.63.63 0 0 1 .625.625v3.417c0 .3.25.742.508.892l2.583 1.541c.3.175.392.559.217.859a.642.642 0 0 1-.542.308.558.558 0 0 1-.316-.092l-2.584-1.541c-.641-.384-1.116-1.225-1.116-1.967V8.258a.63.63 0 0 1 .625-.625z" fill="#C8C8C8" fill-rule="evenodd"/>
</svg>
