<?xml version="1.0" encoding="UTF-8"?>
<svg width="36px" height="36px" viewBox="0 0 36 36" version="1.1" xmlns="http://www.w3.org/2000/svg" xmlns:xlink="http://www.w3.org/1999/xlink">
    <title>7912699C-2BDA-4949-8242-A977AEEE8DE1</title>
    <g id="Web" stroke="none" stroke-width="1" fill="none" fill-rule="evenodd">
        <g id="07.1.3-Clients-(Blocages)" transform="translate(-374.000000, -332.000000)">
            <g id="reservations" transform="translate(350.000000, 262.000000)">
                <g id="Table/Blocage/Blocage/Fila" transform="translate(0.000000, 56.000000)">
                    <g id="Table/.../Celda/Avatar-single" transform="translate(24.000000, 4.000000)">
                        <g id="Avatar/Empty" transform="translate(0.000000, 10.000000)">
                            <circle id="Oval" fill="#2B2F37" cx="18" cy="18" r="18"></circle>
                            <g id="icons/outline/frame-1" opacity="0.3" transform="translate(6.000000, 6.000000)" fill="#FFFFFF">
                                <path d="M12.13375,11.6833333 C12.10875,11.6833333 12.0920833,11.6833333 12.0670833,11.6833333 C12.0254167,11.675 11.9670833,11.675 11.9170833,11.6833333 C9.50045832,11.6083333 7.67545831,9.70833332 7.67545831,7.36666664 C7.67545831,4.9833333 9.61712499,3.04166662 12.0004167,3.04166662 C14.38375,3.04166662 16.3254167,4.9833333 16.3254167,7.36666664 C16.3170834,9.70833332 14.48375,11.6083333 12.15875,11.6833333 C12.1504167,11.6833333 12.1420833,11.6833333 12.13375,11.6833333 Z M12.0004167,4.29166663 C10.3087917,4.29166663 8.92545832,5.67499997 8.92545832,7.36666664 C8.92545832,9.03333332 10.2254583,10.375 11.88375,10.4333333 C11.9254167,10.425 12.0420833,10.425 12.1504167,10.4333333 C13.78375,10.3583333 15.0670833,9.01666665 15.0754167,7.36666664 C15.0754167,5.67499997 13.6920833,4.29166663 12.0004167,4.29166663 Z M12.1413333,20.7916667 C10.508,20.7916667 8.86634165,20.375 7.62467498,19.5416667 C6.46634164,18.775 5.8330083,17.725 5.8330083,16.5833334 C5.8330083,15.4416667 6.46634164,14.3833333 7.62467498,13.6083333 C10.124675,11.95 14.1746667,11.95 16.658,13.6083333 C17.808,14.375 18.4496667,15.425 18.4496667,16.5666667 C18.4496667,17.7083334 17.8163334,18.7666667 16.658,19.5416667 C15.408,20.375 13.7746667,20.7916667 12.1413333,20.7916667 Z M8.31634165,14.6583333 C7.51634164,15.1916667 7.08300831,15.875 7.08300831,16.5916667 C7.08300831,17.3 7.52467498,17.9833334 8.31634165,18.5083334 C10.3913333,19.9 13.8913333,19.9 15.9663334,18.5083334 C16.7663334,17.975 17.1996667,17.2916667 17.1996667,16.575 C17.1996667,15.8666667 16.758,15.1833333 15.9663334,14.6583333 C13.8913333,13.275 10.3913333,13.275 8.31634165,14.6583333 Z" id="Combined-Shape"></path>
                            </g>
                        </g>
                    </g>
                </g>
            </g>
        </g>
    </g>
</svg>