<svg width="25" height="24" viewBox="0 0 25 24" xmlns="http://www.w3.org/2000/svg">
    <path d="M15.825 4.292c.2 0 .459.008.725.05 2.459.283 4.067 2.15 4.067 4.741v.731c.504.24.841.744.841 1.328v1.716c0 .585-.338 1.09-.833 1.329v.73c0 2.866-1.925 4.791-4.791 4.791H13.75a.63.63 0 0 1-.625-.625.63.63 0 0 1 .625-.625h2.084c2.15 0 3.541-1.391 3.541-3.541v-.584h-1.008l-.163-.005-.16-.015c-1.114-.144-2.011-1.017-2.102-2.113a2.287 2.287 0 0 1 .683-1.858 2.19 2.19 0 0 1 .946-.574 2.32 2.32 0 0 1 .687-.101h1.109v-.584c0-1.95-1.142-3.291-2.992-3.508-.2-.033-.375-.033-.55-.033h-7.5c-.2 0-.391.016-.583.041-1.833.234-2.958 1.567-2.958 3.5v1.667a.63.63 0 0 1-.625.625.63.63 0 0 1-.625-.625V9.083c0-2.566 1.583-4.425 4.041-4.733.225-.033.484-.058.75-.058h7.5zm-4.993 11.816-.12.084c-.62.408-1.402.641-2.237.641a4.11 4.11 0 0 1-2.159-.59l-.196-.132.002.065c.083.974 1.062 1.69 2.353 1.69 1.32 0 2.315-.75 2.357-1.758zm9.143-5.191h-1.708c-.292 0-.559.108-.75.308a1.05 1.05 0 0 0-.325.867c.038.511.502.93 1.05.985a.885.885 0 0 0 .076.006l-.076-.006c.04.004.083.007.125.007H20c.108 0 .208-.1.208-.226v-1.716c0-.125-.1-.217-.233-.225zm-9.473 7.708-.06.032-.058.03-.138.067a4.09 4.09 0 0 1-.257.107l-.043.016a4.164 4.164 0 0 1-.899.213l-.108.012a4.93 4.93 0 0 1-.23.017l-.03.002-.204.004-.125-.002h-.043l-.03-.003h-.005l-.02-.001-.11-.006a4.893 4.893 0 0 1-.131-.011l-.11-.012-.126-.018a3.752 3.752 0 0 1-.087-.014l-.195-.04a4.192 4.192 0 0 1-.722-.233 2.544 2.544 0 0 1-.067-.03l-.07-.033-.068-.035-.059-.03-.113-.064a1.387 1.387 0 0 1-.06-.035c.366.684 1.19 1.15 2.14 1.15.95 0 1.776-.475 2.143-1.15l-.175.099.059-.032.02-.012-.02.012zm-5.634-4.957.003-.07v.019l.002-.06c.054-.798.43-1.537 1.077-2.099.075-.066.154-.128.235-.187l.03-.02a3.891 3.891 0 0 1 2.26-.71c.941 0 1.842.326 2.517.909.7.617 1.091 1.433 1.091 2.308v3.984c0 1.775-1.617 3.216-3.608 3.216-1.984 0-3.608-1.441-3.608-3.216v-4.074zM6.775 12.4c-.09.077-.171.16-.244.247l-.013.016.007-.01-.008.01-.011.015-.018.024-.008.01-.029.038-.033.048-.02.03-.04.065-.006.01-.03.054-.007.014-.015.027-.013.028.016-.031-.042.088-.003.007-.003.005-.007.016-.017.043-.001.002-.004.012-.006.017h-.001l-.006.018-.004.01-.017.052-.001.003-.01.032-.007.027-.01.042h-.001v-.001l-.003.015-.01.049-.003.013-.006.03-.005.034-.003.02-.004.028v.002l-.005.039.003-.02-.007.079a1.537 1.537 0 0 0 .222.91c.383.633 1.2 1.025 2.133 1.025s1.75-.392 2.125-1.017c.15-.242.225-.517.225-.808 0-.509-.233-.992-.658-1.367a2.493 2.493 0 0 0-1.477-.6l-.215-.008-.075.002-.116.004-.079.006-.054.006-.044.005-.096.015a2.692 2.692 0 0 0-.595.172l.04-.017-.066.027-.042.02.068-.03-.125.056c-.187.092-.36.207-.516.342z" fill="#FFF" fill-rule="evenodd"/>
</svg>
