<?xml version="1.0" encoding="UTF-8"?>
<svg width="24px" height="24px" viewBox="0 0 24 24" version="1.1" xmlns="http://www.w3.org/2000/svg" xmlns:xlink="http://www.w3.org/1999/xlink">
    <title>8A68B347-07DF-4B84-9A46-066DCDB7B010</title>
    <g id="Web" stroke="none" stroke-width="1" fill="none" fill-rule="evenodd">
        <g id="03.1.1-Reservations" transform="translate(-1311.000000, -232.000000)" fill="#FFFFFF">
            <g id="Table/Top/Default" transform="translate(350.000000, 226.000000)">
                <g id="Group-2" transform="translate(717.000000, 0.000000)">
                    <g id="Button/Medium/Icon-left" transform="translate(229.000000, 0.000000)">
                        <g id="icons/outline/setting-4" transform="translate(15.000000, 6.000000)">
                            <path d="M20.3333334,8.04166665 L15.3333334,8.04166665 C14.9916667,8.04166665 14.7083333,7.75833331 14.7083333,7.41666664 C14.7083333,7.07499998 14.9916667,6.79166664 15.3333334,6.79166664 L20.3333334,6.79166664 C20.675,6.79166664 20.9583334,7.07499998 20.9583334,7.41666664 C20.9583334,7.75833331 20.675,8.04166665 20.3333334,8.04166665 Z M10.3333333,3.87499996 C12.2833333,3.87499996 13.875,5.46666663 13.875,7.41666664 C13.875,9.36666665 12.2833333,10.9583333 10.3333333,10.9583333 C8.59660359,10.9583333 7.14411206,9.69578684 6.84717007,8.04200518 L3.66666663,8.04166665 C3.32499996,8.04166665 3.04166662,7.75833331 3.04166662,7.41666664 C3.04166662,7.07499998 3.32499996,6.79166664 3.66666663,6.79166664 L6.84717007,6.79132811 C7.14411206,5.13754645 8.59660359,3.87499996 10.3333333,3.87499996 Z M10.3333333,5.12499997 C9.06666665,5.12499997 8.04166665,6.14999997 8.04166665,7.41666664 C8.04166665,8.68333332 9.06666665,9.70833332 10.3333333,9.70833332 C11.6,9.70833332 12.625,8.68333332 12.625,7.41666664 C12.625,6.14999997 11.6,5.12499997 10.3333333,5.12499997 Z M13.6666667,13.0416667 C15.4033964,13.0416667 16.8558879,14.3042132 17.1528299,15.9579948 L20.3333334,15.9583334 C20.675,15.9583334 20.9583334,16.2416667 20.9583334,16.5833334 C20.9583334,16.925 20.675,17.2083334 20.3333334,17.2083334 L17.1528299,17.2086719 C16.8558879,18.8624536 15.4033964,20.125 13.6666667,20.125 C11.7166667,20.125 10.125,18.5333334 10.125,16.5833334 C10.125,14.6333333 11.7166667,13.0416667 13.6666667,13.0416667 Z M13.6666667,14.2916667 C12.4,14.2916667 11.375,15.3166667 11.375,16.5833334 C11.375,17.85 12.4,18.875 13.6666667,18.875 C14.9333333,18.875 15.9583334,17.85 15.9583334,16.5833334 C15.9583334,15.3166667 14.9333333,14.2916667 13.6666667,14.2916667 Z M8.66666665,17.2083334 L3.66666663,17.2083334 C3.32499996,17.2083334 3.04166662,16.925 3.04166662,16.5833334 C3.04166662,16.2416667 3.32499996,15.9583334 3.66666663,15.9583334 L8.66666665,15.9583334 C9.00833332,15.9583334 9.29166665,16.2416667 9.29166665,16.5833334 C9.29166665,16.925 9.00833332,17.2083334 8.66666665,17.2083334 Z" id="Combined-Shape"></path>
                        </g>
                    </g>
                </g>
            </g>
        </g>
    </g>
</svg>