<svg width="32" height="32" viewBox="0 0 32 32" xmlns="http://www.w3.org/2000/svg">
    <path d="M4.889 27.944a.84.84 0 0 1-.833-.833.84.84 0 0 1 .833-.833h.278v-12.5c0-1.911.977-3.056 2.61-3.056h.89c1.633 0 2.61 1.145 2.61 3.056v12.5h1.39V7.11c0-1.911 1.055-3.055 2.833-3.055h1c1.778 0 2.833 1.144 2.833 3.055v19.167h1.389v-6.945c0-1.91.978-3.055 2.611-3.055h.89c1.633 0 2.61 1.144 2.61 3.055v6.945h.278a.84.84 0 0 1 .833.833.84.84 0 0 1-.833.833H4.89zM16.5 5.722h-1c-.567 0-1.167.111-1.167 1.39v19.166h3.334V7.11c0-1.278-.6-1.389-1.167-1.389zM8.712 12.39h-.934c-.334 0-.945 0-.945 1.389v12.5h2.778v-12.5c0-1.329-.559-1.386-.9-1.389zm15.51 5.555h-.889c-.333 0-.944 0-.944 1.39v6.944h2.778v-6.945c0-1.389-.611-1.389-.945-1.389z" fill="#C8C8C8" fill-rule="evenodd"/>
</svg>
