<?xml version="1.0" encoding="UTF-8"?>
<svg width="18px" height="18px" viewBox="0 0 18 18" version="1.1" xmlns="http://www.w3.org/2000/svg" xmlns:xlink="http://www.w3.org/1999/xlink">
    <title>icons/copy</title>
    <g id="Symbols" stroke="none" stroke-width="1" fill="none" fill-rule="evenodd">
        <g id="icons/copy" transform="translate(-3.000000, -2.958333)" fill="#FFFFFF">
            <path d="M16.25,3.04166662 C19.5083334,3.04166662 20.9583334,4.49166663 20.9583334,7.74999998 L20.9583334,11.25 C20.9583334,14.5083333 19.5083334,15.9583334 16.25,15.9583334 L15.9576666,15.9576666 L15.9583334,16.25 C15.9583334,19.5083334 14.5083333,20.9583334 11.25,20.9583334 L7.74999998,20.9583334 C4.49166663,20.9583334 3.04166662,19.5083334 3.04166662,16.25 L3.04166662,12.75 C3.04166662,9.49166665 4.49166663,8.04166665 7.74999998,8.04166665 L8.04166662,8.04166662 L8.04166665,7.74999998 C8.04166665,4.49166663 9.49166665,3.04166662 12.75,3.04166662 L16.25,3.04166662 Z M7.74999998,9.29166665 C5.16666663,9.29166665 4.29166663,10.1666667 4.29166663,12.75 L4.29166663,16.25 C4.29166663,18.8333334 5.16666663,19.7083334 7.74999998,19.7083334 L11.25,19.7083334 C13.8333333,19.7083334 14.7083333,18.8333334 14.7083333,16.25 L14.7083333,12.75 C14.7083333,10.1666667 13.8333333,9.29166665 11.25,9.29166665 L7.74999998,9.29166665 Z M15.9583334,12.75 L15.9583334,14.7083333 L16.25,14.7083333 C18.8333334,14.7083333 19.7083334,13.8333333 19.7083334,11.25 L19.7083334,7.74999998 C19.7083334,5.16666663 18.8333334,4.29166663 16.25,4.29166663 L12.75,4.29166663 C10.1666667,4.29166663 9.29166665,5.16666663 9.29166665,7.74999998 L9.29166665,8.04166665 L11.25,8.04166665 C14.5083333,8.04166665 15.9583334,9.49166665 15.9583334,12.75 Z" id="Combined-Shape"></path>
        </g>
    </g>
</svg>