<?xml version="1.0" encoding="UTF-8"?>
<svg width="22px" height="23px" viewBox="0 0 22 23" version="1.1" xmlns="http://www.w3.org/2000/svg" xmlns:xlink="http://www.w3.org/1999/xlink">
    <title>951FAB22-F03A-4FBC-9ADD-B36867ADF66B</title>
    <g id="Web" stroke="none" stroke-width="1" fill="none" fill-rule="evenodd">
        <g id="07.2.2-Client-(Popup-Evaluation)" transform="translate(-1190.000000, -214.000000)" fill="#FFFFFF">
            <g id="Modal/Modulo/Cliente/Progress" transform="translate(480.000000, 100.000000)">
                <g id="Group-2" transform="translate(181.000000, 109.000000)">
                    <g id="Button/Contact" transform="translate(524.000000, 0.000000)">
                        <g id="icons/outline/arrow-left-2" transform="translate(5.518519, 5.777778)">
                            <path d="M12.8883704,17.0888889 C12.7476296,17.0888889 12.6068889,17.0370371 12.4957778,16.925926 L7.66614813,12.0962963 C6.88096294,11.3111111 6.88096294,10.0222222 7.66614813,9.23703703 L12.4957778,4.40742219 C12.7105926,4.19260738 13.0661482,4.19260738 13.280963,4.40742219 C13.4957778,4.62223701 13.4957778,4.97779256 13.280963,5.19260738 L8.45133332,10.0222222 C8.09577776,10.3777778 8.09577776,10.9555556 8.45133332,11.3111111 L13.280963,16.1407408 C13.4957778,16.3555556 13.4957778,16.7111111 13.280963,16.925926 C13.1698519,17.0296297 13.0291111,17.0888889 12.8883704,17.0888889 Z" id="arrow-left-2"></path>
                        </g>
                    </g>
                </g>
            </g>
        </g>
    </g>
</svg>