<?xml version="1.0" encoding="UTF-8"?>
<svg width="22px" height="23px" viewBox="0 0 22 23" version="1.1" xmlns="http://www.w3.org/2000/svg" xmlns:xlink="http://www.w3.org/1999/xlink">
    <title>C15564FC-69DC-4503-B764-27B5F16AFF28</title>
    <g id="Web" stroke="none" stroke-width="1" fill="none" fill-rule="evenodd" opacity="0.5">
        <g id="07.2.2-Client-(Popup-Evaluation)" transform="translate(-1230.000000, -214.000000)" fill="#FFFFFF">
            <g id="Modal/Modulo/Cliente/Progress" transform="translate(480.000000, 100.000000)">
                <g id="Group-2" transform="translate(181.000000, 109.000000)">
                    <g id="Button/Contact" transform="translate(564.000000, 0.000000)">
                        <g id="icons/outline/arrow-right-3" transform="translate(5.518519, 5.777778)">
                            <path d="M8.37748888,17.0888889 C8.23674814,17.0888889 8.09600739,17.0370371 7.98489628,16.925926 C7.77008147,16.7111111 7.77008147,16.3555556 7.98489628,16.1407408 L12.8145185,11.3111111 C13.1700741,10.9555556 13.1700741,10.3777778 12.8145185,10.0222222 L7.98489628,5.19260738 C7.77008147,4.97779256 7.77008147,4.62223701 7.98489628,4.40742219 C8.1997111,4.19260738 8.55526666,4.19260738 8.77008147,4.40742219 L13.5997037,9.23703703 C13.9774815,9.61481481 14.1922963,10.1259259 14.1922963,10.6666667 C14.1922963,11.2074074 13.9848889,11.7185185 13.5997037,12.0962963 L8.77008147,16.925926 C8.65897036,17.0296297 8.51822962,17.0888889 8.37748888,17.0888889 Z" id="arrow-right-3"></path>
                        </g>
                    </g>
                </g>
            </g>
        </g>
    </g>
</svg>