<?xml version="1.0" encoding="UTF-8"?>
<svg width="28px" height="28px" viewBox="0 0 28 28" version="1.1" xmlns="http://www.w3.org/2000/svg" xmlns:xlink="http://www.w3.org/1999/xlink">
    <title>award_icon</title>
    <g id="award_icon" stroke="none" stroke-width="1" fill="none" fill-rule="evenodd">
        <g id="icons/outline/3d-cube-scan" fill="#C8C8C8">
            <path d="M16.4305556,3.54861106 C18.7833334,3.54861106 20.0763889,4.84166662 20.0763889,7.19444441 L20.0756097,9.43361106 L20.2220278,9.51811387 C22.1275834,10.8014472 22.2539723,11.0347805 22.2539723,13.0473194 L22.2539723,17.8695417 C22.2539723,19.8820417 22.1275834,20.115375 20.2609167,21.3695417 L15.6136945,24.0528751 C15.15675,24.3250973 14.5734167,24.4514862 13.9998056,24.4514862 C13.4164722,24.4514862 12.8428611,24.3153751 12.3761944,24.0528751 L7.77755414,21.3987084 C5.93770738,20.1596279 5.75644169,19.8993822 5.7461283,18.0715007 L5.74560968,13.0473194 C5.74560968,11.0347805 5.87199857,10.8014472 7.73866525,9.54728053 L7.92360968,9.43961106 L7.92361108,7.19444441 C7.92361108,4.84166662 9.21666664,3.54861106 11.5694444,3.54861106 L16.4305556,3.54861106 Z M13.9998056,7.92366941 C13.66925,7.92366941 13.3386944,7.99172497 13.1053611,8.12783608 L8.50672081,10.7820028 C7.25822543,11.6298616 7.20620479,11.665189 7.20403726,12.8817719 L7.20394302,17.8695417 C7.20394302,19.2500972 7.20394302,19.2500972 8.55533192,20.1639861 L13.1150833,22.7889862 C13.58175,23.0612084 14.4275833,23.0612084 14.89425,22.7889862 L19.4928611,20.1348195 C20.7956389,19.2500972 20.7956389,19.2500972 20.7956389,17.8695417 L20.7956389,13.0473194 C20.7956389,11.666725 20.7956389,11.666725 19.44425,10.7528361 L14.8845278,8.12783608 C14.6609167,7.99172497 14.3303611,7.92366941 13.9998056,7.92366941 Z M15.2349167,12.6292639 L15.7890833,13.4945417 L16.78075,13.7473194 C17.3154722,13.8834306 17.7140834,14.2334306 17.8599167,14.690375 C18.00575,15.1473195 17.8890834,15.6625972 17.5390834,16.090375 L16.8876945,16.877875 L16.9460278,17.8987084 C16.9751945,18.452875 16.7710278,18.9292639 16.3821389,19.2209306 C16.1488056,19.3862084 15.8765833,19.4737084 15.5849167,19.4737084 C15.38075,19.4737084 15.1668611,19.4348195 14.9529722,19.3473195 L14.0001944,18.977875 L13.0474167,19.3570417 C12.5321389,19.5612084 12.0071778,19.5125972 11.6182889,19.2306528 C11.2294,18.9487084 11.0252333,18.4625972 11.0544,17.9084306 L11.1127333,16.8875972 L10.4613444,16.1000972 C10.1113444,15.6625972 9.99467776,15.1570417 10.1502333,14.690375 C10.2960666,14.2334306 10.6946778,13.8834306 11.2294,13.7473194 L12.2210278,13.4945417 L12.7751944,12.6292639 C13.36825,11.69595 14.6418611,11.69595 15.2349167,12.6292639 Z M14.0099167,13.4362083 L13.45575,14.2917639 C13.2710278,14.5834306 12.9210278,14.8362083 12.5904722,14.9237083 L11.5891222,15.1667639 L12.2404722,15.9542639 C12.4640833,16.2167639 12.5904722,16.6348195 12.5710278,16.9750972 L12.5126944,17.9959306 L13.4654722,17.6167639 C13.7863056,17.490375 14.2140833,17.490375 14.5349167,17.6167639 L15.4876945,17.9959306 L15.4293611,16.9750972 C15.4099167,16.6348195 15.5363056,16.2264861 15.7599167,15.9542639 L16.4113056,15.1667639 L15.4196389,14.9139861 C15.0890833,14.8264861 14.7390833,14.5737083 14.5543611,14.2917639 L14.0099167,13.4362083 Z M16.4305556,5.0069444 L11.5694444,5.0069444 C10.0333333,5.0069444 9.38194442,5.65833329 9.38194442,7.19444441 L9.38160968,8.59761106 L12.3859167,6.86394719 C13.3095278,6.32922496 14.6998056,6.32922496 15.6234167,6.86394719 L18.6176097,8.59161106 L18.6180556,7.19444441 C18.6180556,5.65833329 17.9666667,5.0069444 16.4305556,5.0069444 Z" id="Combined-Shape"></path>
        </g>
    </g>
</svg>