<svg width="40" height="40" viewBox="0 0 40 40" xmlns="http://www.w3.org/2000/svg">
    <g fill="none" fill-rule="evenodd">
        <rect fill-opacity=".248" fill="#F02478" width="40" height="40" rx="8"/>
        <path d="M15.741 29.954a.7.7 0 0 1-.694-.695.7.7 0 0 1 .694-.694h2.638V26.62h-3.472c-3.092 0-4.86-1.768-4.86-4.86v-5c0-3.093 1.768-4.862 4.86-4.862l2.05-.001c.611-1.167 1.798-1.85 3.274-1.85h6.019c2.176 0 3.704 1.518 3.704 3.703v3.611c0 1.481-.68 2.67-1.851 3.28l-.001 1.109c0 3.102-1.769 4.87-4.861 4.87h-3.473v1.944h2.64a.7.7 0 0 1 .694.695.7.7 0 0 1-.694.695H15.74zm.81-16.668-1.644.001c-2.333 0-3.472 1.139-3.472 3.472v5c0 2.334 1.14 3.472 3.472 3.472h8.334c2.333 0 3.472-1.138 3.472-3.472v-.718a4.476 4.476 0 0 1-.234.018l-.072.003-.157.003h-2.194l-2.5 1.666a1.26 1.26 0 0 1-.502.196c-.012 0-.024.003-.036.004a.994.994 0 0 1-.145.013h-.04l-.096-.004-.08-.008a.854.854 0 0 1-.143-.029 1.435 1.435 0 0 1-.3-.116 1.28 1.28 0 0 1-.677-1.13v-.648a3.59 3.59 0 0 1-1.981-.972c-.658-.657-1.028-1.611-1.028-2.676V13.75c0-.158.007-.312.023-.464zm9.699-1.86h-6.019v.01c-1.064 0-1.851.508-2.166 1.388a2.94 2.94 0 0 0-.148.926v3.611c0 .704.213 1.287.62 1.695.407.407.99.62 1.694.62a.7.7 0 0 1 .695.694v1.111l2.528-1.694a.714.714 0 0 1 .389-.12h2.407c.333 0 .648-.047.935-.148.88-.315 1.38-1.102 1.38-2.167V13.74c0-1.426-.89-2.315-2.315-2.315zm-3.065 3.481a.7.7 0 0 1 .694.695.694.694 0 1 1-.694-.694zm2.602 0a.7.7 0 0 1 .694.695.694.694 0 1 1-.694-.694zm-5.212 0a.694.694 0 1 1 .002 1.39.694.694 0 0 1-.002-1.39z" fill="#FF3085"/>
    </g>
</svg>
