<svg width="24" height="24" viewBox="0 0 24 24" xmlns="http://www.w3.org/2000/svg">
    <path d="M15.333 3.042a.63.63 0 0 1 .625.625l.001.65c2.655.229 4.166 1.94 4.166 4.766v7.084c0 3.041-1.75 4.791-4.792 4.791H8.667c-3.042 0-4.792-1.75-4.792-4.791V9.083c0-2.826 1.511-4.537 4.166-4.765v-.651a.63.63 0 0 1 .626-.625.63.63 0 0 1 .625.625l-.001.625h5.417v-.625a.63.63 0 0 1 .625-.625zm3.542 7.158H5.125v5.967c0 2.383 1.158 3.541 3.542 3.541h6.666c2.384 0 3.542-1.158 3.542-3.541V10.2zm-9.2 5.375c.15.158.242.375.242.592a.876.876 0 0 1-.242.591.876.876 0 0 1-.592.242.83.83 0 0 1-.316-.067.963.963 0 0 1-.275-.175.876.876 0 0 1-.242-.591.83.83 0 0 1 .067-.317c.041-.108.1-.2.175-.275.308-.308.875-.308 1.183 0zm2.917 0a.777.777 0 0 1 .175.275.83.83 0 0 1 .066.317.876.876 0 0 1-.241.591A.876.876 0 0 1 12 17a.876.876 0 0 1-.592-.242.876.876 0 0 1-.241-.591.83.83 0 0 1 .066-.317c.042-.108.1-.2.175-.275.309-.308.875-.308 1.184 0zm2.483-.225a.503.503 0 0 1 .158.05c.05.017.1.042.15.075.042.025.084.067.125.1.15.158.242.375.242.592a.876.876 0 0 1-.242.591.876.876 0 0 1-.591.242.876.876 0 0 1-.592-.242.778.778 0 0 1-.175-.275.83.83 0 0 1-.067-.316.83.83 0 0 1 .067-.317c.042-.108.1-.2.175-.275a.832.832 0 0 1 .75-.225zm-5.4-2.692c.15.159.242.375.242.592 0 .05-.009.108-.017.167a.53.53 0 0 1-.05.15.631.631 0 0 1-.075.15c-.025.041-.067.083-.1.125a.876.876 0 0 1-.592.241.83.83 0 0 1-.316-.066.86.86 0 0 1-.275-.175.86.86 0 0 1-.242-.592.83.83 0 0 1 .067-.317c.041-.1.1-.191.175-.275a.86.86 0 0 1 .275-.175.85.85 0 0 1 .908.175zm2.917 0c.15.159.241.375.241.592 0 .05-.008.108-.016.167l-.02.075-.03.075a.631.631 0 0 1-.075.15c-.025.041-.067.083-.1.125a.876.876 0 0 1-.592.241.83.83 0 0 1-.317-.066.86.86 0 0 1-.275-.175.86.86 0 0 1-.241-.592.83.83 0 0 1 .066-.317c.042-.1.1-.191.175-.275a.86.86 0 0 1 .275-.175.835.835 0 0 1 .909.175zm2.916 0c.15.159.242.375.242.592 0 .05-.008.108-.017.167l-.018.075-.032.075a.631.631 0 0 1-.075.15c-.025.041-.066.083-.1.125a.876.876 0 0 1-.591.241.83.83 0 0 1-.317-.066.86.86 0 0 1-.275-.175l-.1-.125a.631.631 0 0 1-.075-.15.53.53 0 0 1-.05-.15c-.008-.059-.017-.117-.017-.167 0-.217.092-.433.242-.592a.86.86 0 0 1 .275-.175.832.832 0 0 1 .908.175zm-.8-7.116H9.291v.625a.63.63 0 0 1-.624.625.63.63 0 0 1-.625-.625L8.04 5.57c-1.92.19-2.876 1.3-2.915 3.378h13.747l-.002-.092c-.065-2.019-1.02-3.099-2.912-3.286v.596a.63.63 0 0 1-.626.625.63.63 0 0 1-.625-.625v-.625z" fill="#FFF" fill-rule="evenodd"/>
</svg>
