<svg width="29" height="28" viewBox="0 0 29 28" xmlns="http://www.w3.org/2000/svg">
    <path d="M16.919 3.549c2.353 0 3.646 1.293 3.646 3.645l-.001 2.24.146.084c1.906 1.283 2.032 1.517 2.032 3.53v4.822c0 2.012-.126 2.245-1.993 3.5l-4.647 2.683c-.457.272-1.04.398-1.614.398-.583 0-1.157-.136-1.623-.398l-4.6-2.654c-1.839-1.24-2.02-1.5-2.03-3.327l-.001-5.025c0-2.012.126-2.246 1.993-3.5l.185-.107V7.194c0-2.352 1.293-3.645 3.646-3.645h4.86zm-2.43 4.375c-.331 0-.662.068-.895.204l-4.599 2.654c-1.248.848-1.3.883-1.303 2.1v4.988c0 1.38 0 1.38 1.352 2.294l4.56 2.625c.466.272 1.312.272 1.779 0l4.598-2.654c1.303-.885 1.303-.885 1.303-2.265v-4.823c0-1.38 0-1.38-1.351-2.294l-4.56-2.625c-.224-.136-.554-.204-.885-.204zm1.234 4.705.554.866.992.252c.535.136.933.486 1.08.943.145.457.028.973-.322 1.4l-.65.788.057 1.02c.03.555-.175 1.031-.563 1.323a1.364 1.364 0 0 1-.798.253c-.204 0-.418-.04-.632-.127l-.952-.37-.953.38c-.515.204-1.04.156-1.43-.126-.388-.282-.592-.768-.563-1.323l.058-1.02-.651-.788c-.35-.437-.467-.943-.311-1.41.145-.457.544-.807 1.079-.943l.991-.252.555-.866c.593-.933 1.866-.933 2.46 0zm-1.225.807-.554.856a1.572 1.572 0 0 1-.865.632l-1.002.243.652.787c.223.263.35.68.33 1.021l-.058 1.02.953-.378c.32-.127.748-.127 1.07 0l.952.379-.058-1.02c-.02-.341.107-.75.33-1.022l.652-.787-.992-.253c-.33-.088-.68-.34-.865-.622l-.545-.856zm2.42-8.43h-4.86c-1.536 0-2.188.652-2.188 2.188v1.404l3.004-1.734c.924-.535 2.314-.535 3.238 0l2.994 1.728V7.194c0-1.536-.651-2.187-2.187-2.187z" fill="#80ADFF" fill-rule="evenodd"/>
</svg>
