<svg width="24" height="24" viewBox="0 0 24 24" xmlns="http://www.w3.org/2000/svg">
    <path d="M14.5 3.042c4.525 0 6.458 1.933 6.458 6.458l.002 3.99c.01.062.01.126 0 .188l-.002.822c0 4.525-1.933 6.458-6.458 6.458h-5c-4.525 0-6.458-1.933-6.458-6.458v-5c0-4.525 1.933-6.458 6.458-6.458h5zm2.534 9.85-3.467 2.975c-.883.758-2.275.758-3.166 0l-.275-.242c-.384-.325-1.017-.358-1.442-.067L5.03 18.011c.765 1.21 2.177 1.697 4.47 1.697h5c3.842 0 5.208-1.366 5.208-5.208v-.636l-1.132-.972c-.417-.359-1.125-.359-1.542 0zm-2.534-8.6h-5c-3.842 0-5.208 1.366-5.208 5.208v5c0 .914.077 1.687.246 2.336l3.454-2.32a2.49 2.49 0 0 1 2.959.16l.275.24c.416.36 1.125.36 1.533 0l3.467-2.974c.883-.759 2.275-.759 3.166 0l.316.27V9.5c0-3.842-1.366-5.208-5.208-5.208zm-5 2.083a2.29 2.29 0 0 1 2.292 2.292A2.29 2.29 0 0 1 9.5 10.958a2.29 2.29 0 0 1-2.292-2.291A2.29 2.29 0 0 1 9.5 6.375zm0 1.25a1.042 1.042 0 1 0 0 2.084 1.042 1.042 0 0 0 0-2.084z" fill="#C8C8C8" fill-rule="evenodd"/>
</svg>
