<svg width="28" height="28" viewBox="0 0 28 28" xmlns="http://www.w3.org/2000/svg">
    <path d="M14 5.98c5.094 0 9.236 4.14 9.236 9.235S19.094 24.451 14 24.451s-9.236-4.141-9.236-9.236c0-5.094 4.142-9.236 9.236-9.236zm0 1.457c-4.288 0-7.778 3.49-7.778 7.778 0 4.288 3.49 7.778 7.778 7.778 4.288 0 7.778-3.49 7.778-7.778 0-4.287-3.49-7.778-7.778-7.778zm0 1.945c.399 0 .73.33.73.73v4.86c0 .399-.331.73-.73.73a.734.734 0 0 1-.73-.73v-4.86c0-.4.331-.73.73-.73zm2.917-4.375h-5.834a.734.734 0 0 1-.729-.73c0-.398.33-.728.73-.728h5.833c.398 0 .729.33.729.729 0 .398-.33.729-.73.729z" fill="#C8C8C8" fill-rule="evenodd"/>
</svg>
