<svg width="28" height="28" viewBox="0 0 28 28" xmlns="http://www.w3.org/2000/svg">
    <path d="M14 14.73a5.597 5.597 0 0 1-5.59-5.591A5.597 5.597 0 0 1 14 3.549a5.597 5.597 0 0 1 5.59 5.59 5.597 5.597 0 0 1-5.59 5.59zm0-9.723a4.141 4.141 0 0 0-4.132 4.132A4.141 4.141 0 0 0 14 13.27a4.141 4.141 0 0 0 4.132-4.132A4.141 4.141 0 0 0 14 5.007zm5.833 10.208a4.622 4.622 0 0 1 4.618 4.618c0 .846-.233 1.673-.67 2.382a4.297 4.297 0 0 1-.924 1.09c-.807.738-1.886 1.146-3.024 1.146a4.59 4.59 0 0 1-3.947-2.245 4.484 4.484 0 0 1-.67-2.373c0-.722.163-1.416.468-2.04A9.42 9.42 0 0 0 14 17.646c-4.2 0-7.622 2.722-7.622 6.076 0 .399-.33.73-.73.73a.734.734 0 0 1-.728-.73c0-4.151 4.073-7.535 9.08-7.535.894 0 1.77.105 2.624.322a4.66 4.66 0 0 1 3.209-1.293zm0 1.459c-.72 0-1.4.243-1.973.7a3.134 3.134 0 0 0-.73 4.083 3.153 3.153 0 0 0 2.703 1.536c.768 0 1.507-.282 2.071-.787a2.8 2.8 0 0 0 .622-.74c.311-.495.467-1.06.467-1.633 0-1.74-1.42-3.16-3.16-3.16zm2.05 1.71a.734.734 0 0 1-.038 1.031l-2.071 1.916a.76.76 0 0 1-.496.194.721.721 0 0 1-.515-.214l-.963-.962a.734.734 0 0 1 0-1.03.734.734 0 0 1 1.03 0l.468.466 1.555-1.44a.734.734 0 0 1 1.03.04z" fill="#C8C8C8" fill-rule="evenodd"/>
</svg>
