<svg width="28" height="28" viewBox="0 0 28 28" xmlns="http://www.w3.org/2000/svg">
    <path d="M14.029 3.48c1 0 1.889.539 2.346 1.4a6.576 6.576 0 0 1 4.207 6.125v2.81c0 .447.214 1.235.447 1.634l1.108 1.847c.418.7.496 1.546.214 2.314a2.644 2.644 0 0 1-1.662 1.604 20.567 20.567 0 0 1-3.208.796 3.648 3.648 0 0 1-3.462 2.5 3.66 3.66 0 0 1-2.576-1.07 3.663 3.663 0 0 1-.883-1.43 20.716 20.716 0 0 1-3.22-.796c-.817-.282-1.439-.856-1.711-1.604-.282-.749-.185-1.575.263-2.314l1.118-1.857c.233-.39.447-1.167.447-1.624v-2.81c0-2.797 1.762-5.193 4.234-6.135a2.644 2.644 0 0 1 2.338-1.39zm1.701 18.745h-.014a21.37 21.37 0 0 1-3.406 0 2.202 2.202 0 0 0 1.709.827c.692 0 1.31-.324 1.711-.827zM13.591 5.923l-.29.029-.03.004.031-.004a5.487 5.487 0 0 0-.159.023l.128-.019a5.112 5.112 0 0 0-4.356 5.05v2.81c0 .709-.292 1.759-.651 2.371l-1.118 1.857c-.214.36-.273.74-.146 1.06.117.33.408.583.807.72a19.444 19.444 0 0 0 12.435 0c.35-.117.622-.38.748-.73a1.21 1.21 0 0 0-.097-1.05l-1.118-1.857c-.37-.632-.651-1.672-.651-2.382v-2.8a5.105 5.105 0 0 0-4.376-5.052l.059.007a6.017 6.017 0 0 0-1.216-.037z" fill="#FFF" fill-rule="evenodd"/>
</svg>
