<svg width="32" height="32" viewBox="0 0 32 32" xmlns="http://www.w3.org/2000/svg">
    <path d="M18.583 20.958H5.417c-1.6 0-2.375-.816-2.375-2.483v-3.367c0-1.675.775-2.483 2.375-2.483h13.166c1.6 0 2.375.817 2.375 2.483v3.367c0 1.667-.775 2.483-2.375 2.483zM5.417 13.875c-.842 0-1.125.175-1.125 1.233v3.367c0 1.058.283 1.233 1.125 1.233h13.166c.842 0 1.125-.175 1.125-1.233v-3.367c0-1.058-.283-1.233-1.125-1.233H5.417zm7.333-2.5H5.417c-1.6 0-2.375-.817-2.375-2.483V5.525c0-1.675.775-2.483 2.375-2.483h7.333c1.6 0 2.375.816 2.375 2.483v3.367c0 1.666-.775 2.483-2.375 2.483zM5.417 4.292c-.842 0-1.125.175-1.125 1.233v3.367c0 1.058.283 1.233 1.125 1.233h7.333c.842 0 1.125-.175 1.125-1.233V5.525c0-1.058-.283-1.233-1.125-1.233H5.417z" fill="#FFF" fill-rule="evenodd"/>
</svg>
