<?xml version="1.0" encoding="UTF-8"?>
<svg width="25px" height="24px" viewBox="0 0 25 24" version="1.1" xmlns="http://www.w3.org/2000/svg" xmlns:xlink="http://www.w3.org/1999/xlink">
    <title>E98584B1-6E05-4308-93E5-64BBA2660C47</title>
    <g id="Web" stroke="none" stroke-width="1" fill="none" fill-rule="evenodd">
        <g id="04.3.1-Nouveau-cours" transform="translate(-1251.000000, -622.000000)">
            <g id="Modulo/Cours/Nouveau/Donnees" transform="translate(403.500000, 536.000000)">
                <g id="Imput/TextField" transform="translate(490.000000, 48.000000)">
                    <g id="Input/State/Text-Off-Copy" transform="translate(16.500000, 38.000000)">
                        <g id="icons/solid/minus-square" transform="translate(341.282675, 0.000000)">
                            <path d="M14.5,20.9583334 L9.49999999,20.9583334 C4.97499996,20.9583334 3.04166662,19.025 3.04166662,14.5 L3.04166662,9.49999999 C3.04166662,4.97499996 4.97499996,3.04166662 9.49999999,3.04166662 L14.5,3.04166662 C19.025,3.04166662 20.9583334,4.97499996 20.9583334,9.49999999 L20.9583334,14.5 C20.9583334,19.025 19.025,20.9583334 14.5,20.9583334 Z" id="Combined-Shape" fill-opacity="0.24" fill="#C8C8C8"></path>
                            <path d="M15.3333333,12.625 L8.66666665,12.625 C8.32499998,12.625 8.04166665,12.3416667 8.04166665,12 C8.04166665,11.6583333 8.32499998,11.375 8.66666665,11.375 L15.3333333,11.375 C15.675,11.375 15.9583334,11.6583333 15.9583334,12 C15.9583334,12.3416667 15.675,12.625 15.3333333,12.625 Z" id="minus-square" fill="#FFFFFF"></path>
                        </g>
                    </g>
                </g>
            </g>
        </g>
    </g>
</svg>