<svg width="24" height="24" viewBox="0 0 24 24" xmlns="http://www.w3.org/2000/svg">
    <path d="M6.167 14.292A2.29 2.29 0 0 1 3.875 12a2.29 2.29 0 0 1 2.292-2.292A2.29 2.29 0 0 1 8.458 12a2.29 2.29 0 0 1-2.291 2.292zm0-3.334a1.042 1.042 0 1 0 0 2.084 1.042 1.042 0 0 0 0-2.084zm11.666 3.334A2.29 2.29 0 0 1 15.542 12a2.29 2.29 0 0 1 2.291-2.292A2.29 2.29 0 0 1 20.125 12a2.29 2.29 0 0 1-2.292 2.292zm0-3.334a1.042 1.042 0 1 0 .001 2.084 1.042 1.042 0 0 0 0-2.084zM12 14.292A2.29 2.29 0 0 1 9.708 12 2.29 2.29 0 0 1 12 9.708 2.29 2.29 0 0 1 14.292 12 2.29 2.29 0 0 1 12 14.292zm0-3.334a1.042 1.042 0 1 0 0 2.084 1.042 1.042 0 0 0 0-2.084z" fill="#FFF" fill-rule="evenodd"/>
</svg>
