<?xml version="1.0" encoding="UTF-8"?>
<svg width="24px" height="24px" viewBox="0 0 24 24" version="1.1" xmlns="http://www.w3.org/2000/svg" xmlns:xlink="http://www.w3.org/1999/xlink">
    <title>2DAB8307-0CCB-467A-8968-DA4757DE1428</title>
    <g id="Web" stroke="none" stroke-width="1" fill="none" fill-rule="evenodd">
        <g id="04.3.1-Nouveau-cours" transform="translate(-889.000000, -393.000000)" fill="#C8C8C8" fill-rule="nonzero">
            <g id="Modulo/Cours/Nouveau/Info" transform="translate(404.000000, 136.000000)">
                <g id="Group" transform="translate(0.000000, 145.000000)">
                    <g id="Sport/On-Copy-7" transform="translate(432.000000, 80.000000)">
                        <g id="icons/outline/disciplinas/4" transform="translate(53.000000, 32.000000)">
                            <path d="M6.52197159,20.9091663 L7.99386557,18.7272928 L6.90876665,18.7272928 C6.50709201,18.7272928 6.18151792,18.401694 6.18151792,18.0000633 C6.18151792,17.5983993 6.50712533,17.2728338 6.90876665,17.2728338 L8.97517757,17.2728338 L15.685424,7.32524653 C15.3859891,7.15059006 15.0726592,7.02350626 14.7541547,6.94153379 L8.97554771,15.4841114 C8.80667188,15.7472509 8.47963573,15.8805565 8.16353719,15.7903339 L5.61809263,15.0631044 C5.14427795,14.9276298 4.93940612,14.3702599 5.2126796,13.9603791 L6.66736212,11.7785055 C6.70611195,11.7203842 6.75310107,11.6680442 6.80688594,11.6232253 L8.98866913,9.80511461 C9.16622101,9.65720735 9.3933789,9.60819487 9.60328461,9.65185899 L10.9550315,9.92222713 L12.9848727,6.93732172 C12.1024618,7.15983218 11.308403,7.7176277 10.8052364,8.55619199 C10.6149628,8.87311495 10.2171968,8.99701564 9.88062962,8.84405242 L7.62393034,7.81823987 L7.57332496,7.93188058 C7.4102344,8.29897453 6.98036259,8.46423714 6.61340698,8.30114349 C6.24630332,8.13790919 6.08103634,7.70819681 6.2441343,7.34110286 L6.29965512,7.21632867 L5.88050994,7.02577145 C5.51485352,6.85964645 5.3532102,6.42849427 5.5193359,6.06284382 C5.68560965,5.69719707 6.11677694,5.53540997 6.48243707,5.70167933 L6.89044107,5.88703253 L6.97140894,5.70471439 C7.13464755,5.33762043 7.5643713,5.17235783 7.93147497,5.33545148 C8.29857864,5.49868577 8.46384561,5.92839815 8.30074765,6.29549211 L8.21471999,6.48908809 L9.93049842,7.26894991 C10.9411624,5.99259703 12.48664,5.31622328 14.0490329,5.37277899 L15.1270622,3.78744241 L14.933028,3.67423475 C14.5860229,3.4718186 14.4687629,3.02650898 14.6711844,2.67951303 C14.8736059,2.33266144 15.3189273,2.21540827 15.6659325,2.41782072 L15.9468604,2.58177677 L16.1260002,2.3184929 C16.3518441,1.98624289 16.8040945,1.9002101 17.1363681,2.12605542 C17.4684825,2.35189334 17.5546619,2.80427982 17.3288106,3.13639658 L15.6068139,5.68177379 C15.8748758,5.78139031 16.137889,5.9052984 16.3932108,6.0541976 L17.0938835,6.46278302 C17.4585295,6.6756072 17.5661066,7.15314765 17.327678,7.50173515 L13.3790373,13.2727867 L16.3638736,13.2727867 C16.9377368,13.2727867 17.2855932,13.9063365 16.9774897,14.3905393 L15.1432669,17.2727709 L19.9413762,17.2727709 C20.3149943,17.2727709 20.6468237,17.0336343 20.764935,16.679121 C20.8920259,16.2979991 21.3038201,16.0921334 21.684915,16.2191987 C22.0658989,16.3461418 22.2719182,16.7580695 22.1448495,17.1390433 C21.8287843,18.0874989 20.9411581,18.7272669 19.9413762,18.7272669 L9.72258405,18.7272669 L8.26804959,20.9091404 L13.7594289,20.9091404 C14.1331951,20.9091404 14.4648764,20.6700037 14.5831358,20.3154905 C14.7100823,19.9343686 15.1220209,19.7285029 15.5030048,19.8555682 C15.8841367,19.9825113 16.0900079,20.394439 15.9630873,20.7754128 C15.6468777,21.7238684 14.7592849,22.3636364 13.7594659,22.3636364 L6.9193008,22.3636364 L0.727248724,22.3636364 C0.325574093,22.3636364 0,22.0380376 0,21.6364069 C0,21.2347429 0.325607405,20.9091774 0.727248724,20.9091774 L6.52197159,20.9091663 Z M13.4187679,17.2727968 L15.0387174,14.7273086 L12.3890418,14.7273086 L10.6920294,17.2727968 L13.4187679,17.2727968 Z M9.65260561,11.1449409 L7.81897498,12.6730185 L6.97546566,13.9381195 L8.05264361,14.2457892 L10.0648292,11.2274982 L9.65260561,11.1449409 Z M20.7271587,8.18187312 C18.9196968,8.18187312 17.4543173,6.71653236 17.4543173,4.90911838 C17.4543173,3.10155634 18.9196968,1.63636364 20.7271587,1.63636364 C22.5347685,1.63636364 24,3.10155634 24,4.90911838 C24,6.71653236 22.5347685,8.18187312 20.7271587,8.18187312 Z M20.7271587,6.72722909 C21.7313082,6.72722909 22.5454655,5.91324137 22.5454655,4.90911838 C22.5454655,3.90499538 21.7313082,3.09085961 20.7271587,3.09085961 C19.7230091,3.09085961 18.9089998,3.90499538 18.9089998,4.90911838 C18.9089998,5.91324137 19.7230091,6.72722909 20.7271587,6.72722909 Z" id="Shape"></path>
                        </g>
                    </g>
                </g>
            </g>
        </g>
    </g>
</svg>