<svg width="18" height="18" viewBox="0 0 18 18" xmlns="http://www.w3.org/2000/svg">
    <path d="M5.707 2.906a.46.46 0 0 1 .09.01l-.091-.01a.467.467 0 0 1 .286.098l.025.022a.215.215 0 0 1 .02.018l2.325 2.325a.472.472 0 0 1 0 .662.464.464 0 0 1-.331.138.464.464 0 0 1-.331-.138L6.175 4.506v10.119a.472.472 0 0 1-.468.469.472.472 0 0 1-.47-.469V4.505L3.713 6.031a.472.472 0 0 1-.662 0 .472.472 0 0 1 0-.662l2.325-2.325a.47.47 0 0 1 .088-.07l.025-.013a.316.316 0 0 1 .095-.038.483.483 0 0 1 .123-.017zm6.586 12.188a.47.47 0 0 1-.366-.179l-2.283-2.284a.472.472 0 0 1 0-.662.472.472 0 0 1 .662 0l1.519 1.518V3.375c0-.256.212-.469.468-.469.257 0 .47.213.47.469L12.761 13.5l1.532-1.531a.472.472 0 0 1 .662 0 .472.472 0 0 1 0 .662l-2.325 2.325a.474.474 0 0 1-.171.108l-.007.002a.447.447 0 0 1-.153.028h-.007z" fill="#C8C8C8" fill-rule="evenodd"/>
</svg>
