<?xml version="1.0" encoding="UTF-8"?>
<svg width="24px" height="24px" viewBox="0 0 24 24" version="1.1" xmlns="http://www.w3.org/2000/svg" xmlns:xlink="http://www.w3.org/1999/xlink">
    <title>7DE501B5-E225-4CF9-B8FF-E53B15E19808</title>
    <g id="Web" stroke="none" stroke-width="1" fill="none" fill-rule="evenodd">
        <g id="09.1.4-Stats-(Cours-Ind)" transform="translate(-1380.000000, -158.000000)" fill="#FFFFFF">
            <g id="Group-2-Copy" transform="translate(1370.000000, 152.000000)">
                <g id="icons/outline/archive-book" transform="translate(10.000000, 6.000000)">
                    <path d="M15.3333333,3.04166662 C18.375,3.04166662 20.125,4.79166663 20.125,7.83333331 L20.125,16.1666667 C20.125,19.2083334 18.375,20.9583334 15.3333333,20.9583334 L8.66666665,20.9583334 C5.62499997,20.9583334 3.87499996,19.2083334 3.87499996,16.1666667 L3.87499996,7.83333331 C3.87499996,4.79166663 5.62499997,3.04166662 8.66666665,3.04166662 L15.3333333,3.04166662 Z M8.45799996,4.29466662 L8.66666665,4.29166663 C6.2833333,4.29166663 5.12499997,5.44999997 5.12499997,7.83333331 L5.12499997,16.1666667 C5.12499997,18.55 6.2833333,19.7083334 8.66666665,19.7083334 L15.3333333,19.7083334 C17.7166667,19.7083334 18.875,18.55 18.875,16.1666667 L18.875,7.83333331 C18.875,5.52044665 17.7841308,4.36121303 15.5414644,4.29470438 L15.5416667,10.2166583 C15.5416667,10.6333333 15.3,11.0083333 14.9166667,11.1666667 C14.5416667,11.3333333 14.1,11.2583333 13.7916667,10.975 L12,9.33332499 L10.2083167,10.9833333 C10.0083167,11.1666667 9.75833332,11.2583333 9.49999999,11.2583333 C9.35833332,11.2583333 9.21666665,11.2333333 9.08333332,11.175 C8.69999998,11.0083333 8.45833332,10.6333333 8.45833332,10.225 L8.45799996,4.29466662 Z M16.5833334,16.375 C16.925,16.375 17.2083334,16.6583334 17.2083334,17 C17.2083334,17.3416667 16.925,17.625 16.5833334,17.625 L9.49999999,17.625 C9.15833332,17.625 8.87499998,17.3416667 8.87499998,17 C8.87499998,16.6583334 9.15833332,16.375 9.49999999,16.375 L16.5833334,16.375 Z M16.5833334,13.0416667 C16.925,13.0416667 17.2083334,13.325 17.2083334,13.6666667 C17.2083334,14.0083333 16.925,14.2916667 16.5833334,14.2916667 L13.0416667,14.2916667 C12.7,14.2916667 12.4166667,14.0083333 12.4166667,13.6666667 C12.4166667,13.325 12.7,13.0416667 13.0416667,13.0416667 L16.5833334,13.0416667 Z M14.2916667,4.29166663 L9.70833332,4.29166663 L9.70833332,9.74164999 L11.2916667,8.28331665 C11.4916667,8.09998331 11.75,8.00834998 12,8.00834998 C12.25,8.00834998 12.5083333,8.09998331 12.7083333,8.28331665 L14.2916667,9.74164999 L14.2916667,4.29166663 Z" id="Combined-Shape"></path>
                </g>
            </g>
        </g>
    </g>
</svg>