<svg width="24" height="24" viewBox="0 0 24 24" xmlns="http://www.w3.org/2000/svg">
    <path d="m6.54 15.384 5.23-1.414-3.132-3.499a2.117 2.117 0 0 1 1.579-3.53h5.666c.39 0 .705.316.705.706v4.68l1.948 2.273a.706.706 0 1 1-1.072.918l-2.117-2.47a.705.705 0 0 1-.17-.46V8.354h-4.96A.706.706 0 0 0 9.69 9.53l3.894 4.353a.706.706 0 0 1-.342 1.152L7.81 16.503l4.001 3.531c.523.461 1.303.472 1.838.026l.723-.602a.706.706 0 0 1 .904 1.085l-.723.602a2.824 2.824 0 0 1-3.676-.052L.24 11.706a.706.706 0 0 1 .934-1.059l5.368 4.737zm2.197-10.87-.155.135a.706.706 0 1 1-.93-1.063l.166-.145-.236-.276a.706.706 0 1 1 1.072-.918l.227.265.184-.16a.706.706 0 0 1 .93 1.062l-.195.17 1.144 1.335a.706.706 0 1 1-1.072.919L8.737 4.513zm12.086 5.604a3.177 3.177 0 1 1 0-6.353 3.177 3.177 0 0 1 0 6.353zm0-1.412a1.765 1.765 0 1 0 0-3.53 1.765 1.765 0 0 0 0 3.53z" fill="#FFF" fill-rule="nonzero"/>
</svg>
