<svg width="25" height="24" viewBox="0 0 25 24" xmlns="http://www.w3.org/2000/svg">
    <path d="M10.65 12.625c1.825 0 2.475.642 2.475 2.458v3.425c0 1.809-.65 2.45-2.475 2.45H6.025c-1.825 0-2.475-.641-2.475-2.458v-2.183a.613.613 0 0 1 0-.201v-1.033c0-1.816.65-2.458 2.475-2.458h4.625zm1.216 4.217H4.79v1.666c0 1.117.092 1.209 1.225 1.209h4.625c1.085 0 1.215-.084 1.225-1.069v-1.806zm-1.083-2.966-4.767-.001c-1.133 0-1.225.092-1.225 1.208v.509h7.075v-.649c-.01-.94-.129-1.059-1.083-1.067zM15 20.958a.627.627 0 0 1-.533-.95l.875-1.458a.631.631 0 0 1 .858-.217c.3.175.392.559.217.859l-.225.375c2.3-.542 4.025-2.609 4.025-5.075a.63.63 0 0 1 .625-.625.63.63 0 0 1 .625.625c-.008 3.566-2.909 6.466-6.467 6.466zM4.167 10.125a.63.63 0 0 1-.625-.625c0-3.558 2.9-6.458 6.458-6.458a.627.627 0 0 1 .533.95L9.658 5.45a.631.631 0 0 1-.858.217.624.624 0 0 1-.217-.859l.225-.375c-2.3.542-4.025 2.609-4.025 5.075a.615.615 0 0 1-.616.617zm13.75 1.667a4.374 4.374 0 1 1-.001-8.751 4.374 4.374 0 0 1 0 8.75zm0-7.5a3.126 3.126 0 0 0 0 6.25 3.126 3.126 0 0 0 0-6.25z" fill="#FFF" fill-rule="evenodd"/>
</svg>
