<svg width="24" height="24" viewBox="0 0 24 24" xmlns="http://www.w3.org/2000/svg">
    <path d="M13.092 3.042c1.95 0 2.134 1.15 2.259 1.916l.183 1.084c1.34.077 2.682.185 4.024.316a.626.626 0 0 1 .558.684.617.617 0 0 1-.616.566h-.067C15.025 7.167 10.625 7 6.266 7.442l-1.7.166a.63.63 0 0 1-.133-1.25l1.7-.166a49.993 49.993 0 0 1 2.34-.181L8.65 4.95c.133-.8.316-1.908 2.258-1.908h2.183zm.009 1.258h-2.184c-.883 0-.9.117-1.025.858l-.14.798c1.5-.046 3.004-.032 4.512.027l-.138-.816c-.117-.725-.142-.867-1.025-.867zm4.65 4.692a.626.626 0 0 1 .583.666l-.542 8.392c-.092 1.3-.208 2.908-3.117 2.908h-5.35c-2.908 0-3.025-1.608-3.116-2.908l-.542-8.392a.63.63 0 0 1 .583-.666.631.631 0 0 1 .667.583l.542 8.392c.091 1.266.125 1.741 1.866 1.741h5.35c1.75 0 1.784-.475 1.867-1.741l.542-8.392a.637.637 0 0 1 .666-.583zm-4.368 6.133a.63.63 0 0 1 .625.625.63.63 0 0 1-.625.625h-2.775a.63.63 0 0 1-.625-.625.63.63 0 0 1 .625-.625h2.775zm.7-3.333a.63.63 0 0 1 .625.625.63.63 0 0 1-.625.625H9.917a.63.63 0 0 1-.625-.625.63.63 0 0 1 .625-.625h4.166z" fill="#C8C8C8" fill-rule="evenodd"/>
</svg>
