<svg width="24" height="24" viewBox="0 0 24 24" xmlns="http://www.w3.org/2000/svg">
    <path d="M16.167 4.292c3.041 0 4.791 1.75 4.791 4.791v5.834c0 3.041-1.75 4.791-4.791 4.791H7.833c-3.041 0-4.791-1.75-4.791-4.791V9.083c0-3.041 1.75-4.791 4.791-4.791h8.334zm0 1.25H7.833c-2.383 0-3.541 1.158-3.541 3.541v5.834c0 2.383 1.158 3.541 3.541 3.541h8.334c2.383 0 3.541-1.158 3.541-3.541V9.083c0-2.383-1.158-3.541-3.541-3.541zm-10.417 7.5a.63.63 0 0 1 .625.625v1.25c0 .8.658 1.458 1.458 1.458h1.25a.63.63 0 0 1 .625.625.63.63 0 0 1-.625.625h-1.25a2.714 2.714 0 0 1-2.708-2.708v-1.25a.63.63 0 0 1 .625-.625zm12.5 0a.63.63 0 0 1 .625.625v1.25a2.714 2.714 0 0 1-2.708 2.708h-1.25a.63.63 0 0 1-.625-.625.63.63 0 0 1 .625-.625h1.25c.8 0 1.458-.658 1.458-1.458v-1.25a.63.63 0 0 1 .625-.625zM12 8.875a3.126 3.126 0 0 1 0 6.25 3.126 3.126 0 0 1 0-6.25zm0 1.25A1.878 1.878 0 0 0 10.125 12c0 1.033.842 1.875 1.875 1.875A1.878 1.878 0 0 0 13.875 12 1.878 1.878 0 0 0 12 10.125zm-2.917-3.75A.63.63 0 0 1 9.708 7a.63.63 0 0 1-.625.625h-1.25c-.8 0-1.458.658-1.458 1.458v1.25a.63.63 0 0 1-.625.625.63.63 0 0 1-.625-.625v-1.25a2.714 2.714 0 0 1 2.708-2.708h1.25zm7.084 0a2.714 2.714 0 0 1 2.708 2.708v1.25a.63.63 0 0 1-.625.625.63.63 0 0 1-.625-.625v-1.25c0-.8-.658-1.458-1.458-1.458h-1.25A.63.63 0 0 1 14.292 7a.63.63 0 0 1 .625-.625h1.25z" fill="#C8C8C8" fill-rule="evenodd"/>
</svg>
