<svg width="24" height="24" viewBox="0 0 24 24" xmlns="http://www.w3.org/2000/svg">
    <path d="m19.109 18.225 1.666 1.667a.629.629 0 0 1 0 .883.618.618 0 0 1-.441.183.618.618 0 0 1-.442-.183l-1.667-1.667a.629.629 0 0 1 0-.883.629.629 0 0 1 .884 0zM11.583 3.042c4.709 0 8.542 3.833 8.542 8.541 0 4.709-3.833 8.542-8.542 8.542-4.708 0-8.541-3.833-8.541-8.542 0-4.708 3.833-8.541 8.541-8.541zm0 1.25c-4.025 0-7.291 3.275-7.291 7.291 0 4.017 3.266 7.292 7.291 7.292s7.292-3.275 7.292-7.292c0-4.016-3.267-7.291-7.292-7.291z" fill="#C8C8C8" fill-rule="evenodd"/>
</svg>
