<svg width="21" height="20" viewBox="0 0 21 20" xmlns="http://www.w3.org/2000/svg">
    <path d="M10.192 3.736c2.605 0 5.07 1.528 6.764 4.18.736 1.146.736 3.015 0 4.167-1.694 2.653-4.16 4.18-6.764 4.18-2.61 0-5.076-1.527-6.77-4.18-.737-1.146-.737-3.014 0-4.166 1.7-2.653 4.166-4.18 6.77-4.18zm0 1.042c-2.243 0-4.389 1.347-5.889 3.701-.52.813-.52 2.23 0 3.042 1.5 2.354 3.646 3.701 5.89 3.701 2.242 0 4.388-1.347 5.888-3.701.521-.813.521-2.23 0-3.042-1.5-2.354-3.646-3.701-5.889-3.701zm0 2.215a3.008 3.008 0 0 1 0 6.014 3.008 3.008 0 0 1 0-6.014zm0 1.042A1.968 1.968 0 0 0 8.227 10c0 1.083.882 1.965 1.965 1.965A1.968 1.968 0 0 0 12.158 10a1.968 1.968 0 0 0-1.966-1.965z" fill="#FFF" fill-rule="evenodd"/>
</svg>
