<svg width="25" height="24" viewBox="0 0 25 24" xmlns="http://www.w3.org/2000/svg">
    <path d="M12.911 12.625A4.798 4.798 0 0 1 8.12 7.833a4.798 4.798 0 0 1 4.792-4.791 4.798 4.798 0 0 1 4.792 4.791 4.798 4.798 0 0 1-4.792 4.792zm0-8.333A3.55 3.55 0 0 0 9.37 7.833a3.55 3.55 0 0 0 3.542 3.542 3.55 3.55 0 0 0 3.542-3.542 3.55 3.55 0 0 0-3.542-3.541zm8.3 10.383c.433.433.658.9.658 1.367 0 .475-.217.916-.658 1.358l-.376.377a.622.622 0 0 1-.105.105l-2.47 2.468a1.65 1.65 0 0 1-.85.425l-1.124.158a.756.756 0 0 1-.192.025c-.317 0-.617-.116-.833-.333a1.186 1.186 0 0 1-.317-1.025l.158-1.125c.042-.292.217-.633.425-.85l2.95-2.95c1.184-1.183 2.225-.508 2.734 0zm-8.3-.8c.909 0 1.809.133 2.65.383.334.1.517.45.417.775a.62.62 0 0 1-.775.417 8.064 8.064 0 0 0-2.292-.333c-3.6 0-6.533 2.333-6.533 5.208 0 .35-.283.633-.625.633a.63.63 0 0 1-.625-.625c0-3.558 3.492-6.458 7.783-6.458zm5.395 2.738-1.895 1.895a.317.317 0 0 0-.067.142l-.15 1.042 1.042-.15a.463.463 0 0 0 .141-.075l1.89-1.89a3.336 3.336 0 0 1-.961-.964zm1.53-1.346c-.15 0-.284.1-.475.291l-.143.143c.2.42.541.762.96.965l.15-.15c.133-.133.291-.324.291-.474 0-.125-.1-.3-.292-.484-.2-.2-.35-.291-.491-.291z" fill="#FFF" fill-rule="evenodd"/>
</svg>
