<?xml version="1.0" encoding="UTF-8"?>
<svg width="25px" height="25px" viewBox="0 0 25 25" version="1.1" xmlns="http://www.w3.org/2000/svg" xmlns:xlink="http://www.w3.org/1999/xlink">
    <title>stations_off</title>
    <g id="Symbols" stroke="none" stroke-width="1" fill="none" fill-rule="evenodd">
        <g id="stations_off" transform="translate(-3.500000, -3.500000)" fill="#C8C8C8">
            <path d="M16,4.0555555 C22.5888889,4.0555555 27.9444445,9.41111108 27.9444445,16 C27.9444445,16.4555556 27.5666667,16.8333333 27.1111112,16.8333333 C26.6555556,16.8333333 26.2777778,16.4555556 26.2777778,16 C26.2777778,15.1377438 26.1710143,14.2999275 25.9700139,13.4990777 L26.0007778,13.4998778 C25.9118889,13.4998778 25.823,13.4887889 25.7341112,13.4554555 C24.3772595,13.0039722 22.9903008,12.6500704 21.5862494,12.3937504 C21.7217909,13.5885746 21.7893334,14.7916353 21.7893334,16 C21.7893334,16.4555556 21.4115556,16.8333333 20.956,16.8333333 C20.5004445,16.8333333 20.1226667,16.4555556 20.1226667,16 C20.1226667,14.7035099 20.0408997,13.4121353 19.8786997,12.1318779 C17.3093202,11.8088759 14.7012985,11.8080414 12.1320591,12.1285343 C11.8088917,14.6993063 11.808725,17.3077572 12.1299918,19.8773277 C13.4114953,20.0401905 14.7031903,20.122 16,20.122 C16.4555556,20.122 16.8333333,20.4997778 16.8333333,20.9553334 C16.8333333,21.4108889 16.4555556,21.7886667 16,21.7886667 C14.7916244,21.7886667 13.5882775,21.721618 12.3938656,21.5881717 C12.6488637,22.994424 13.0033389,24.3845545 13.4558333,25.7444445 C13.4814569,25.8181123 13.496,25.8936267 13.4999954,25.9691246 C14.3006281,26.1711036 15.1381043,26.2777778 16,26.2777778 C16.4555556,26.2777778 16.8333333,26.6555556 16.8333333,27.1111112 C16.8333333,27.5666667 16.4555556,27.9444445 16,27.9444445 C9.41111108,27.9444445 4.0555555,22.5888889 4.0555555,16 C4.0555555,9.41111108 9.41111108,4.0555555 16,4.0555555 Z M22.8888889,18.5 C25.3111112,18.5 27.2777778,20.4666667 27.2777778,22.8888889 C27.2777778,23.8017285 26.9984645,24.6498684 26.5207171,25.3524292 C26.5445656,25.3695885 26.5669158,25.3895825 26.5883334,25.411 L27.6994445,26.5221112 C28.0216667,26.8443334 28.0216667,27.3777778 27.6994445,27.7000001 C27.5327778,27.8666667 27.3216667,27.9444445 27.1105556,27.9444445 C26.8994445,27.9444445 26.6883334,27.8666667 26.5216667,27.7000001 L25.4105556,26.5888889 L25.3524292,26.5207171 C24.6498684,26.9984645 23.8017285,27.2777778 22.8888889,27.2777778 C20.4666667,27.2777778 18.5,25.3111112 18.5,22.8888889 C18.5,20.4666667 20.4666667,18.5 22.8888889,18.5 Z M22.8888889,20.1666667 C21.3888889,20.1666667 20.1666667,21.3888889 20.1666667,22.8888889 C20.1666667,24.3888889 21.3888889,25.6111112 22.8888889,25.6111112 C24.3888889,25.6111112 25.6111112,24.3888889 25.6111112,22.8888889 C25.6111112,21.3888889 24.3888889,20.1666667 22.8888889,20.1666667 Z M6.83333329,20.4664445 C6.83211229,20.5152845 6.82659765,20.5631853 6.81714326,20.6097636 C7.80856074,22.5807128 9.41840839,24.190726 11.3897592,25.1844145 C11.4363526,25.1732141 11.4843875,25.1678667 11.5335889,25.1666666 C11.1658663,23.9112572 10.8756584,22.6351115 10.662965,21.3469716 C9.37302543,21.1321062 8.0942147,20.8381222 6.83333329,20.4664445 Z M10.4237803,12.3906991 L10.0899824,12.4527889 C8.79317952,12.7034555 7.5118444,13.0376778 6.25628884,13.4554555 C6.18195551,13.4802333 6.1063147,13.4938938 6.03127318,13.4973348 C5.82925365,14.297826 5.72222217,15.1366624 5.72222217,16 C5.72222217,16.8618957 5.82889644,17.6993719 6.02973406,18.4999179 C6.10947007,18.5025414 6.18909836,18.5172381 6.26667773,18.5442222 C7.63024084,18.9971372 9.01887457,19.3539401 10.4244263,19.6128188 C10.1590806,17.2136446 10.1590069,14.7883724 10.4237803,12.3906991 Z M20.434876,6.72927751 L20.5101016,6.98154175 C20.8598027,8.19251882 21.1390853,9.42078174 21.3463686,10.6615917 C22.6709316,10.8812345 23.9836247,11.184298 25.2734504,11.5699459 C24.2605469,9.45871021 22.5465123,7.7436405 20.434876,6.72927751 Z M11.3908464,6.81726002 L11.281,6.87122218 C9.3034209,7.89777313 7.69943786,9.54828814 6.73166891,11.5601492 C8.02308715,11.1754826 9.33698205,10.8740262 10.6635286,10.6550751 C10.8752076,9.36687111 11.1655807,8.08971789 11.5335889,6.83333329 C11.4849502,6.83211732 11.4372432,6.82664306 11.3908464,6.81726002 Z M16,5.72222217 C15.1381043,5.72222217 14.3006281,5.82889644 13.5000821,6.02973406 C13.4975131,6.1094499 13.4828174,6.18907614 13.4558333,6.26665551 C13.004089,7.62429137 12.6500392,9.01206755 12.3936838,10.4169477 C14.791565,10.1523054 17.2157947,10.1534241 19.6112341,10.4202535 C19.3540142,9.01650645 18.9974279,7.62904216 18.5448889,6.26661106 C18.5189263,6.18872327 18.5051685,6.10939927 18.5025832,6.03083287 C17.702174,5.82925365 16.8633376,5.72222217 16,5.72222217 Z" id="Combined-Shape"></path>
        </g>
    </g>
</svg>