<?xml version="1.0" encoding="UTF-8"?>
<svg width="24px" height="24px" viewBox="0 0 24 24" version="1.1" xmlns="http://www.w3.org/2000/svg" xmlns:xlink="http://www.w3.org/1999/xlink">
    <title>icons/outline/video</title>
    <g id="Teach" stroke="none" stroke-width="1" fill="none" fill-rule="evenodd">
        <g id="video">
            <path d="M6.80999994,20.8601379 C3.25999999,20.8601379 2,18.3701355 2,16.0501356 L2,7.95013618 C2,4.49013615 3.3499999,3.14013672 6.80999994,3.14013672 L12.8800001,3.14013672 C16.3400002,3.14013672 17.6900005,4.49013615 17.6900005,7.95013618 L17.6900005,16.0501356 C17.6900005,19.5101357 16.3400002,20.8601379 12.8800001,20.8601379 L6.80999994,20.8601379 Z M3.51999998,7.95013618 L3.51999998,16.0501356 C3.51999998,17.2801356 3.95000005,19.3401375 6.80999994,19.3401375 L12.8800001,19.3401375 C15.49,19.3401375 16.1700001,18.6601355 16.1700001,16.0501356 L16.1700001,7.95013618 C16.1700001,5.34013629 15.49,4.66013646 12.8800001,4.66013646 L6.80999994,4.66013646 L6.80999994,4.66013646 C4.20000005,4.66013646 3.51999998,5.34013629 3.51999998,7.95013618 Z" id="Vector" fill="#FFFFFF"></path>
            <path d="M19.1696873,17.5299959 L16.4996872,15.6599951 C16.2996872,15.5199951 16.1796875,15.2899952 16.1796875,15.0399952 L16.1796875,8.95999479 C16.1796875,8.70999479 16.2996872,8.47999491 16.4996872,8.33999491 L19.1696873,6.46999454 C20.3596873,5.63999456 21.2296866,5.87999491 21.6396866,6.08999491 C22.0496866,6.30999491 22.7496872,6.87999463 22.7496872,8.32999468 L22.7496872,15.6599951 C22.7496872,17.1099951 22.0496866,17.6899949 21.6396866,17.8999949 C21.4496866,18.0099948 21.1496879,18.1099958 20.7796879,18.1099958 C20.3496879,18.1099958 19.7996873,17.9699959 19.1696873,17.5299959 Z M20.0396881,16.2799959 C20.4896881,16.5899959 20.8096877,16.6199945 20.9396877,16.5499945 C21.0796877,16.4799945 21.2296867,16.1999951 21.2296867,15.6599951 L21.2296867,8.33999491 C21.2296867,7.7899949 21.0696877,7.51999456 20.9396877,7.44999456 C20.8096877,7.37999456 20.4896881,7.40999454 20.0396881,7.71999454 L17.6896877,9.35999441 L17.6896877,14.6399956 L20.0396881,16.2799959 Z" id="Vector" fill="#FFFFFF"></path>
            <path d="M9.25,9.5 C9.25,8.25999999 10.26,7.25 11.5,7.25 C12.74,7.25 13.75,8.25999999 13.75,9.5 C13.75,10.74 12.74,11.75 11.5,11.75 C10.26,11.75 9.25,10.74 9.25,9.5 Z M10.75,9.5 C10.75,9.91 11.09,10.25 11.5,10.25 C11.91,10.25 12.25,9.91 12.25,9.5 C12.25,9.09 11.91,8.75 11.5,8.75 C11.09,8.75 10.75,9.09 10.75,9.5 Z" id="Vector" fill="#FFFFFF"></path>
            <path d="M24,0 L24,24 L0,24 L0,0 L24,0 Z" id="Vector" opacity="0"></path>
        </g>
    </g>
</svg>